<?xml version="1.0" encoding="UTF-8"?>
<svg version="1.1" xmlns="http://www.w3.org/2000/svg" width="612" height="408">
<path d="M0 0 C9.9 0 19.8 0 30 0 C30 2.31 30 4.62 30 7 C26.78658631 8.60670684 23.37041032 7.82510855 19.875 7.5625 C18.74384766 7.48418945 18.74384766 7.48418945 17.58984375 7.40429688 C15.7262063 7.27454996 13.86305004 7.13792512 12 7 C12 8.65 12 10.3 12 12 C20.415 11.505 20.415 11.505 29 11 C29 13.64 29 16.28 29 19 C23.39 19 17.78 19 12 19 C12 21.31 12 23.62 12 26 C18.27 25.34 24.54 24.68 31 24 C31.33 24.99 31.66 25.98 32 27 C32.86388346 25.27223307 33.72775219 23.54445878 34.59155273 21.81665039 C35.32387712 20.35216475 36.05646298 18.88780984 36.78930664 17.42358398 C38.40201708 14.20066565 40.01163708 10.97647164 41.609375 7.74609375 C42.04765625 6.86050781 42.4859375 5.97492188 42.9375 5.0625 C43.50791016 3.90427734 43.50791016 3.90427734 44.08984375 2.72265625 C45 1 45 1 46 0 C48.01964199 -0.07244053 50.04167124 -0.08377188 52.0625 -0.0625 C53.71958984 -0.04896484 53.71958984 -0.04896484 55.41015625 -0.03515625 C56.26480469 -0.02355469 57.11945313 -0.01195312 58 0 C61.87536458 7.50336545 65.38424263 15.07093464 68.60546875 22.87109375 C69.92618854 26.00560978 69.92618854 26.00560978 71.67578125 28.78515625 C73 31 73 31 73 33 C71.39482903 32.91266424 69.79078338 32.80447776 68.1875 32.6875 C67.29417969 32.62949219 66.40085937 32.57148438 65.48046875 32.51171875 C62.60572342 31.91866105 61.75814902 31.30724061 60 29 C59.34 27.68 58.68 26.36 58 25 C53.05 25 48.1 25 43 25 C42.34 26.65 41.68 28.3 41 30 C40.67 30.66 40.34 31.32 40 32 C31.02960855 33.57994579 21.73773541 32.99222666 12.6875 32.5625 C8.500625 32.376875 4.31375 32.19125 0 32 C0 21.44 0 10.88 0 0 Z M49 11 C47.5393715 13.64738916 47 14.89448334 47 18 C48.98 18 50.96 18 53 18 C52.01 15.69 51.02 13.38 50 11 C49.67 11 49.34 11 49 11 Z M30 29 C31 31 31 31 31 31 Z " fill="#A4A7BE" transform="translate(176,193)"/>
<path d="M0 0 C0.99 0.33 1.98 0.66 3 1 C2.855625 1.66 2.71125 2.32 2.5625 3 C0.74296324 11.1839952 0.74296324 11.1839952 3 19 C3.48726563 19.60328125 3.97453125 20.2065625 4.4765625 20.828125 C6.14314565 23.20407431 6.85166855 25.21260751 7.625 28 C7.86476563 28.845625 8.10453125 29.69125 8.3515625 30.5625 C8.76051227 32.09975697 9.14094788 33.64515167 9.48046875 35.19921875 C10.25384645 37.8798738 11.98092016 39.09005961 14 41 C18.17593168 44.97916003 20.24012932 48.11698992 21.5 53.8125 C22.07696048 56.61515969 22.07696048 56.61515969 23 59 C25.93665254 60.70304428 25.93665254 60.70304428 29 61 C29.66 61.66 30.32 62.32 31 63 C30.625 65.625 30.625 65.625 30 68 C27.94921875 68.22786458 25.8984375 68.45572917 23.84765625 68.68359375 C21.98859771 68.81886614 21.98859771 68.81886614 21 70 C18.30917128 69.82364548 15.67148554 69.38164079 13 69 C13 69.66 13 70.32 13 71 C11.515 71.495 11.515 71.495 10 72 C10.99 72 11.98 72 13 72 C13 72.66 13 73.32 13 74 C9.77208445 76.1519437 8.71599191 76.20086443 5 76 C5.11859375 75.28714844 5.2371875 74.57429688 5.359375 73.83984375 C6.3020763 66.8355731 5.82308662 63.84707365 2 58 C1.63858045 55.67085177 1.30300475 53.33746522 1 51 C0.525625 50.236875 0.05125 49.47375 -0.4375 48.6875 C-2.40252994 45.3076485 -2.90790377 42.12806418 -3.5703125 38.3046875 C-3.97303754 35.85256407 -3.97303754 35.85256407 -5 33 C-5.09308544 31.33541327 -5.12996185 29.66718003 -5.125 28 C-5.12757813 27.13375 -5.13015625 26.2675 -5.1328125 25.375 C-5 23 -5 23 -4 20 C-3.84848809 18.10610107 -3.72702657 16.20970837 -3.625 14.3125 C-3.22998147 8.98298772 -2.15431283 4.8706203 0 0 Z " fill="#DDBCFB" transform="translate(284,113)"/>
<path d="M0 0 C1.53237305 0.00966797 1.53237305 0.00966797 3.09570312 0.01953125 C4.15080078 0.03628906 5.20589844 0.05304688 6.29296875 0.0703125 C7.36740234 0.07933594 8.44183594 0.08835938 9.54882812 0.09765625 C12.19293729 0.12115944 14.83658747 0.15401675 17.48046875 0.1953125 C17.48046875 2.8353125 17.48046875 5.4753125 17.48046875 8.1953125 C7.08546875 8.6903125 7.08546875 8.6903125 -3.51953125 9.1953125 C-3.84953125 10.1853125 -4.17953125 11.1753125 -4.51953125 12.1953125 C-3.68550781 12.08832031 -2.85148437 11.98132813 -1.9921875 11.87109375 C4.93238585 11.13342442 11.24905372 10.6019107 17.48046875 14.1953125 C20.30043285 18.42525866 20.27278063 22.22751698 19.48046875 27.1953125 C16.95370836 30.54156274 15.44113333 31.87509097 11.48046875 33.1953125 C8.38072054 33.44636586 5.27684604 33.42654192 2.16796875 33.4453125 C1.32556641 33.4659375 0.48316406 33.4865625 -0.38476562 33.5078125 C-5.51175376 33.53988123 -9.11451941 33.11832811 -13.51953125 30.1953125 C-16.34729179 25.95367169 -15.92508955 22.31031528 -15.95703125 17.3203125 C-15.98990234 16.42183594 -16.02277344 15.52335938 -16.05664062 14.59765625 C-16.09316498 10.10183958 -16.03298946 7.89260143 -13.3046875 4.1875 C-8.90029325 1.03709177 -5.40195633 -0.06035705 0 0 Z M-4.51953125 19.1953125 C-5.50953125 20.6803125 -5.50953125 20.6803125 -6.51953125 22.1953125 C-5.4402596 24.30413546 -5.4402596 24.30413546 -3.51953125 26.1953125 C-0.55117262 26.67939184 -0.55117262 26.67939184 2.66796875 26.4453125 C3.75464844 26.40921875 4.84132813 26.373125 5.9609375 26.3359375 C6.79238281 26.28953125 7.62382812 26.243125 8.48046875 26.1953125 C9.48263939 22.61203497 9.48263939 22.61203497 8.48046875 19.1953125 C6.35608536 19.11452609 4.23083645 19.05622109 2.10546875 19.0078125 C0.92210937 18.97300781 -0.26125 18.93820313 -1.48046875 18.90234375 C-2.48335938 18.99902344 -3.48625 19.09570312 -4.51953125 19.1953125 Z " fill="#EBEEFB" transform="translate(422.51953125,192.8046875)"/>
<path d="M0 0 C0.82435547 -0.01160156 1.64871094 -0.02320313 2.49804688 -0.03515625 C8.84806209 -0.00470054 13.01701684 1.11936702 17.7890625 5.56640625 C19.91088178 9.18154384 19.95601507 12.24498067 19.8125 16.3125 C19.81121094 17.00279297 19.80992187 17.69308594 19.80859375 18.40429688 C19.7346243 22.73972862 19.5402861 26.55326971 17.4375 30.375 C11.6133157 33.43221302 6.36614314 33.84324866 -0.125 33.75 C-0.93646484 33.76160156 -1.74792969 33.77320313 -2.58398438 33.78515625 C-7.9615063 33.75911498 -11.8582637 33.05102631 -16.5625 30.375 C-18.38172734 27.53314351 -18.81806409 25.31184743 -18.828125 21.96875 C-18.83070313 21.14246094 -18.83328125 20.31617188 -18.8359375 19.46484375 C-18.82820313 18.61019531 -18.82046875 17.75554687 -18.8125 16.875 C-18.82023437 16.02035156 -18.82796875 15.16570312 -18.8359375 14.28515625 C-18.83335937 13.45886719 -18.83078125 12.63257813 -18.828125 11.78125 C-18.82586914 11.03166016 -18.82361328 10.28207031 -18.82128906 9.50976562 C-18.52146776 7.03652275 -17.90389589 5.47129763 -16.5625 3.375 C-11.05223714 0.23237266 -6.25486255 -0.08844268 0 0 Z M-8.5625 10.375 C-8.95939576 13.39672534 -8.95939576 13.39672534 -8.9375 16.8125 C-8.96585937 17.96621094 -8.99421875 19.11992187 -9.0234375 20.30859375 C-8.84948384 23.41856157 -8.84948384 23.41856157 -6.8203125 25.26171875 C-4.35440571 26.47760704 -2.79813829 26.77810587 -0.0625 26.75 C0.6903125 26.75773437 1.443125 26.76546875 2.21875 26.7734375 C5.12913152 26.25079857 6.42331697 25.55627893 8.4375 23.375 C8.99777834 20.24886429 8.99777834 20.24886429 8.8125 16.8125 C8.79960937 15.65621094 8.78671875 14.49992188 8.7734375 13.30859375 C8.73185489 10.25464307 8.73185489 10.25464307 6.4375 8.375 C3.37930773 8.05472695 3.37930773 8.05472695 -0.0625 8.125 C-1.2278125 8.11984375 -2.393125 8.1146875 -3.59375 8.109375 C-6.68076065 8.06574227 -6.68076065 8.06574227 -8.5625 10.375 Z " fill="#DCDDED" transform="translate(479.5625,192.625)"/>
<path d="M0 0 C4.16653186 -0.08777806 8.33282276 -0.14065272 12.5 -0.1875 C13.67304688 -0.21263672 14.84609375 -0.23777344 16.0546875 -0.26367188 C24.24657982 -0.33270468 30.4752716 0.00023115 36.9375 5.5 C40.77351814 10.14971896 40.53766651 15.220085 40 21 C38.5 24.625 38.5 24.625 37 27 C36.34 27 35.68 27 35 27 C35 27.66 35 28.32 35 29 C28.13690391 32.93208964 21.2951717 32.33973331 13.5625 32.1875 C12.25861328 32.17396484 10.95472656 32.16042969 9.61132812 32.14648438 C6.40712378 32.11127334 3.20377895 32.06202094 0 32 C0.33 31.34 0.66 30.68 1 30 C1.15411106 27.9692523 1.24982453 25.93393579 1.31640625 23.8984375 C1.35830078 22.68671875 1.40019531 21.475 1.44335938 20.2265625 C1.48267578 18.95554688 1.52199219 17.68453125 1.5625 16.375 C1.60568359 15.09625 1.64886719 13.8175 1.69335938 12.5 C1.79969886 9.33344652 1.90172833 6.16681247 2 3 C1.34 3 0.68 3 0 3 C0 2.01 0 1.02 0 0 Z M12 6 C11.97111486 9.14581423 11.95324077 12.29159469 11.9375 15.4375 C11.92912109 16.33533203 11.92074219 17.23316406 11.91210938 18.15820312 C11.90888672 19.01220703 11.90566406 19.86621094 11.90234375 20.74609375 C11.89710693 21.53685303 11.89187012 22.3276123 11.88647461 23.14233398 C11.79504091 25.01592689 11.79504091 25.01592689 13 26 C14.93208837 26.17830165 16.87271372 26.26793417 18.8125 26.3125 C20.39998047 26.36857422 20.39998047 26.36857422 22.01953125 26.42578125 C25.08023804 26.22894139 25.08023804 26.22894139 27.359375 24.2578125 C30.01074985 20.60901568 29.62665831 17.3324525 29 13 C27.63061787 9.42439111 26.7493432 8.36595831 23.3125 6.6875 C19.41480209 5.87854383 15.97749562 5.95494083 12 6 Z " fill="#AAB7DE" transform="translate(134,193)"/>
<path d="M0 0 C4.62 0 9.24 0 14 0 C13.34 3.96 12.68 7.92 12 12 C16.29 12 20.58 12 25 12 C24.67 8.04 24.34 4.08 24 0 C28.29 0 32.58 0 37 0 C37 10.56 37 21.12 37 32 C32.71 32 28.42 32 24 32 C24.33 27.71 24.66 23.42 25 19 C20.71 19 16.42 19 12 19 C12.66 23.29 13.32 27.58 14 32 C9.71 32 5.42 32 1 32 C1.01740234 29.03773438 1.01740234 29.03773438 1.03515625 26.015625 C1.04453502 23.42708428 1.05363513 20.83854253 1.0625 18.25 C1.07087891 16.94804687 1.07925781 15.64609375 1.08789062 14.3046875 C1.09111328 13.05429688 1.09433594 11.80390625 1.09765625 10.515625 C1.10289307 9.36352539 1.10812988 8.21142578 1.11352539 7.02441406 C1.09656457 3.80266249 1.09656457 3.80266249 0 0 Z " fill="#E4E8F6" transform="translate(277,193)"/>
<path d="M0 0 C2.73260469 3.55238609 4.7742739 7.48547798 5 12 C3.43277029 18.87169951 1.89958023 22.97755893 -4 27 C-11.04213077 29.79102785 -19.7900594 30.6014001 -27 27.8125 C-31.27861845 25.22750135 -34.39424253 22.81727242 -36 18 C-36.38936949 13.16283288 -36.64769377 8.60218985 -34.8125 4.0625 C-30.83780665 -0.46042692 -26.76371141 -3.32317272 -20.9375 -4.75 C-13.86394786 -5.19911442 -5.88982542 -4.16597408 0 0 Z M-23 5 C-25.54357983 8.05229579 -26.00903645 9.49395901 -25.9375 13.5 C-24.89169732 17.40433002 -24.0119443 19.30510247 -21 22 C-16.39367149 23.25627141 -13.18951483 23.39400848 -9 21 C-6.02887057 16.54330585 -6.38117011 12.22480422 -7 7 C-9.09672357 3.47750441 -10.49420456 3.13794421 -14.4375 2.0625 C-18.48221121 1.99154015 -19.92080053 2.43400044 -23 5 Z " fill="#D3D1DC" transform="translate(352,197)"/>
<path d="M0 0 C3.7158613 5.57379195 3.79883983 13.42253955 3 20 C2.1037859 22.10551608 1.02843999 24.01247788 -0.1015625 26 C-2.76771825 31.93509453 -0.75212122 38.08659087 1 44 C1.42424242 50.36363636 1.42424242 50.36363636 -1 54 C-1.19561578 56.11746199 -1.19561578 56.11746199 -1.1875 58.375 C-1.54551786 62.56313345 -1.54551786 62.56313345 -3.51171875 64.453125 C-4.75762154 65.23671166 -6.0158027 66.00109484 -7.28515625 66.74609375 C-10.20001335 68.87745851 -10.80422888 71.66442794 -12 75 C-12.99 75.99 -12.99 75.99 -14 77 C-16.1640625 76.9765625 -16.1640625 76.9765625 -18.625 76.625 C-19.44226563 76.51414062 -20.25953125 76.40328125 -21.1015625 76.2890625 C-21.72804687 76.19367188 -22.35453125 76.09828125 -23 76 C-23.75 73.75 -23.75 73.75 -24 71 C-22.69026002 69.6434836 -21.35197858 68.31442362 -20 67 C-17.39543074 61.39015852 -16.39017616 55.95527606 -15.45703125 49.86328125 C-14.8681042 46.17367847 -13.970321 42.6023167 -13 39 C-12.71125 37.84242188 -12.4225 36.68484375 -12.125 35.4921875 C-10.14163472 27.6319644 -7.8685768 20.2252886 -3.94921875 13.0859375 C-2.85052946 10.67153387 -2.39619292 8.42203871 -1.9375 5.8125 C-1.10320285 1.10320285 -1.10320285 1.10320285 0 0 Z " fill="#D4C1FD" transform="translate(250,114)"/>
<path d="M0 0 C9.63039684 -0.69126161 9.63039684 -0.69126161 13.76367188 2.25878906 C17.30104201 5.41166244 20.42857421 8.92021311 23.56201172 12.46728516 C25.52396528 14.55848116 27.70539599 16.28855502 30 18 C30.02699725 15.72923158 30.04639453 13.45837179 30.0625 11.1875 C30.07410156 9.92292969 30.08570313 8.65835938 30.09765625 7.35546875 C30.16159116 4.00394763 30.16159116 4.00394763 29 1 C30.47906892 0.97310784 31.95827483 0.95365379 33.4375 0.9375 C34.26121094 0.92589844 35.08492188 0.91429687 35.93359375 0.90234375 C38 1 38 1 39 2 C39.08855161 4.6662603 39.11524673 7.30647114 39.09765625 9.97265625 C39.0962413 10.77029892 39.09482635 11.56794159 39.09336853 12.38975525 C39.08775316 14.94737435 39.07519812 17.50490718 39.0625 20.0625 C39.05748698 21.79231645 39.05292373 23.52213426 39.04882812 25.25195312 C39.03777875 29.50133553 39.02050386 33.75065312 39 38 C35.5651253 36.68299775 32.97009061 35.42491556 30.1875 33 C29.58292969 32.484375 28.97835938 31.96875 28.35546875 31.4375 C27 30 27 30 27 28 C26.17242187 27.66355469 26.17242187 27.66355469 25.328125 27.3203125 C22.28788256 25.59614817 20.18574327 23.37484178 17.75 20.875 C16.85796875 19.96492188 15.9659375 19.05484375 15.046875 18.1171875 C14.37140625 17.41851562 13.6959375 16.71984375 13 16 C12.97300275 18.27076842 12.95360547 20.54162821 12.9375 22.8125 C12.92589844 24.07707031 12.91429687 25.34164062 12.90234375 26.64453125 C12.83840884 29.99605237 12.83840884 29.99605237 14 33 C10.7 33 7.4 33 4 33 C4.06960938 30.68355469 4.06960938 30.68355469 4.140625 28.3203125 C4.17817199 26.25522784 4.21456898 24.19012205 4.25 22.125 C4.28351563 21.11179688 4.31703125 20.09859375 4.3515625 19.0546875 C4.44368872 11.86884262 3.17176078 6.44900854 0 0 Z " fill="#C1C8E0" transform="translate(354,192)"/>
<path d="M0 0 C-1.36918885 3.29399057 -2.549956 4.43418751 -5.6015625 6.171875 C-8.52584383 8.58224686 -8.97201529 9.81629787 -9.55371094 13.63476562 C-9.742057 18.17856483 -9.56219186 22.70896764 -9.375 27.25 C-9.31012856 29.61420352 -9.25506844 31.97843883 -9.20303345 34.34295654 C-9.16719804 35.81006493 -9.12191307 37.27697914 -9.06625366 38.74346924 C-8.89334294 43.78668588 -8.89334294 43.78668588 -10 46 C-12.65756064 47.74839516 -14.97382445 48.99127482 -18 50 C-19.20882096 52.00016466 -19.20882096 52.00016466 -20 54 C-20.66 54 -21.32 54 -22 54 C-22.1546875 54.9590625 -22.1546875 54.9590625 -22.3125 55.9375 C-22.539375 56.618125 -22.76625 57.29875 -23 58 C-24.485 58.495 -24.485 58.495 -26 59 C-25.86042877 58.45948502 -25.72085754 57.91897003 -25.57705688 57.36207581 C-24.20768834 51.71260602 -23.6690083 46.39071329 -23.5859375 40.58984375 C-23.56657135 39.73693253 -23.5472052 38.8840213 -23.5272522 38.00526428 C-23.46809898 35.31610706 -23.42133162 32.6269055 -23.375 29.9375 C-23.33676089 28.09959206 -23.29770583 26.2617009 -23.2578125 24.42382812 C-23.1624515 19.9493572 -23.07818747 15.47480262 -23 11 C-25.5567929 9.71230612 -28.11325869 8.4905444 -30.75 7.375 C-32.35875 6.694375 -32.35875 6.694375 -34 6 C-34 5.34 -34 4.68 -34 4 C-32.71416016 4.10828125 -32.71416016 4.10828125 -31.40234375 4.21875 C-29.04130522 4.41040138 -26.67922933 4.58958561 -24.31640625 4.7578125 C-21.99964546 4.9269988 -19.68559958 5.13597246 -17.375 5.375 C-12.90465956 4.87829551 -9.4473166 3.10200276 -5.453125 1.09375 C-3 0 -3 0 0 0 Z " fill="#E9ECF6" transform="translate(140,182)"/>
<path d="M0 0 C11.22 0 22.44 0 34 0 C34 2.64 34 5.28 34 8 C30.04 8 26.08 8 22 8 C22.14062311 11.43778631 22.28726929 14.87513171 22.4375 18.3125 C22.47681641 19.28896484 22.51613281 20.26542969 22.55664062 21.27148438 C22.59853516 22.20927734 22.64042969 23.14707031 22.68359375 24.11328125 C22.72025146 24.97735596 22.75690918 25.84143066 22.79467773 26.73168945 C22.92747354 29.1647826 22.92747354 29.1647826 24 32 C19.71 32 15.42 32 11 32 C11.33 24.08 11.66 16.16 12 8 C7.71 8 3.42 8 -1 8 C-0.67 5.36 -0.34 2.72 0 0 Z " fill="#D6D7E3" transform="translate(241,193)"/>
<path d="M0 0 C1.65322266 0.01740234 1.65322266 0.01740234 3.33984375 0.03515625 C4.99693359 0.04869141 4.99693359 0.04869141 6.6875 0.0625 C7.54214844 0.07410156 8.39679688 0.08570313 9.27734375 0.09765625 C13.15270833 7.6010217 16.66158638 15.16859089 19.8828125 22.96875 C21.20353229 26.10326603 21.20353229 26.10326603 22.953125 28.8828125 C24.27734375 31.09765625 24.27734375 31.09765625 24.27734375 33.09765625 C22.67217278 33.01032049 21.06812713 32.90213401 19.46484375 32.78515625 C18.12486328 32.69814453 18.12486328 32.69814453 16.7578125 32.609375 C13.87326742 32.01429562 12.95582248 31.49623942 11.27734375 29.09765625 C10.78234375 26.62265625 10.78234375 26.62265625 10.27734375 24.09765625 C5.65734375 24.09765625 1.03734375 24.09765625 -3.72265625 24.09765625 C-4.05265625 23.10765625 -4.38265625 22.11765625 -4.72265625 21.09765625 C-4.39265625 20.43765625 -4.06265625 19.77765625 -3.72265625 19.09765625 C-0.75265625 19.09765625 2.21734375 19.09765625 5.27734375 19.09765625 C5.60734375 18.10765625 5.93734375 17.11765625 6.27734375 16.09765625 C5.94734375 15.43765625 5.61734375 14.77765625 5.27734375 14.09765625 C4.94734375 14.75765625 4.61734375 15.41765625 4.27734375 16.09765625 C2.77734375 14.78515625 2.77734375 14.78515625 1.27734375 13.09765625 C1.27734375 12.10765625 1.27734375 11.11765625 1.27734375 10.09765625 C-0.78256103 11.39233302 -0.78256103 11.39233302 -2.72265625 13.09765625 C-2.72265625 14.08765625 -2.72265625 15.07765625 -2.72265625 16.09765625 C-3.71265625 16.42765625 -4.70265625 16.75765625 -5.72265625 17.09765625 C-5.72265625 16.43765625 -5.72265625 15.77765625 -5.72265625 15.09765625 C-6.71265625 15.42765625 -7.70265625 15.75765625 -8.72265625 16.09765625 C-8.26122855 10.56052383 -6.74986338 0.24210414 0 0 Z " fill="#E6E5F3" transform="translate(224.72265625,192.90234375)"/>
<path d="M0 0 C0.99 0.33 1.98 0.66 3 1 C2.855625 1.66 2.71125 2.32 2.5625 3 C0.74296324 11.1839952 0.74296324 11.1839952 3 19 C3.48726563 19.60328125 3.97453125 20.2065625 4.4765625 20.828125 C6.14314565 23.20407431 6.85166855 25.21260751 7.625 28 C7.86476563 28.845625 8.10453125 29.69125 8.3515625 30.5625 C8.76051227 32.09975697 9.14094788 33.64515167 9.48046875 35.19921875 C10.25384645 37.8798738 11.98092016 39.09005961 14 41 C19.03128996 45.91548022 21.0800277 50.00503824 22 57 C19 56 19 56 17 53 C16.34 53 15.68 53 15 53 C14.67 52.34 14.34 51.68 14 51 C13.67 51.66 13.34 52.32 13 53 C9.75728494 52.4409112 8.06942576 51.5867822 6 49 C6 48.34 6 47.68 6 47 C5.34 47 4.68 47 4 47 C3.7525 45.96875 3.505 44.9375 3.25 43.875 C2.15920937 39.99399857 0.37066116 37.23990359 -2 34 C-2.66 34.66 -3.32 35.32 -4 36 C-4.98275588 33.05173237 -5.13414725 31.07347496 -5.125 28 C-5.12757813 27.13375 -5.13015625 26.2675 -5.1328125 25.375 C-5 23 -5 23 -4 20 C-3.84848809 18.10610107 -3.72702657 16.20970837 -3.625 14.3125 C-3.22998147 8.98298772 -2.15431283 4.8706203 0 0 Z " fill="#6055F4" transform="translate(284,113)"/>
<path d="M0 0 C0.33 0 0.66 0 1 0 C1.33 3.3 1.66 6.6 2 10 C4.97 10.495 4.97 10.495 8 11 C8.66 9.68 9.32 8.36 10 7 C10.03738281 7.62648437 10.07476562 8.25296875 10.11328125 8.8984375 C10.21189453 10.12433594 10.21189453 10.12433594 10.3125 11.375 C10.39951172 12.59316406 10.39951172 12.59316406 10.48828125 13.8359375 C10.82990528 16.37921338 10.82990528 16.37921338 14 18 C16.18186947 18.3157994 16.18186947 18.3157994 18.5 18.25 C19.66015625 18.25773437 19.66015625 18.25773437 20.84375 18.265625 C23.29513844 18.12738062 23.29513844 18.12738062 26 16 C26.72965366 13.43717258 26.72965366 13.43717258 27 11 C28.65 10.67 30.3 10.34 32 10 C32.66 10.99 33.32 11.98 34 13 C34.66 13 35.32 13 36 13 C36.33 9.04 36.66 5.08 37 1 C37.33 1 37.66 1 38 1 C38.05434116 3.5419589 38.0938339 6.08273682 38.125 8.625 C38.14175781 9.33785156 38.15851563 10.05070313 38.17578125 10.78515625 C38.21619311 15.19004882 38.1996192 19.07293116 36 23 C30.1758157 26.05721302 24.92864314 26.46824866 18.4375 26.375 C17.22030273 26.39240234 17.22030273 26.39240234 15.97851562 26.41015625 C10.6009937 26.38411498 6.7042363 25.67602631 2 23 C0.12787154 20.10039403 -0.24147019 17.86879425 -0.1953125 14.453125 C-0.18886719 13.60878906 -0.18242187 12.76445312 -0.17578125 11.89453125 C-0.15902344 11.02183594 -0.14226562 10.14914063 -0.125 9.25 C-0.11597656 8.36183594 -0.10695313 7.47367188 -0.09765625 6.55859375 C-0.07414577 4.37211942 -0.04128499 2.18619906 0 0 Z " fill="#AEC0F1" transform="translate(461,200)"/>
<path d="M0 0 C0.66 0 1.32 0 2 0 C1.56826496 6.15222436 0.34594658 9.81917949 -3 15 C-3.66 15 -4.32 15 -5 15 C-5.28875 15.763125 -5.5775 16.52625 -5.875 17.3125 C-7 20 -7 20 -9 23 C-9.43344637 24.88758902 -9.82455738 26.78509607 -10.1875 28.6875 C-11.73835773 35.0598362 -14.11303136 38.70093736 -19 43 C-19.76828125 43.68578125 -20.5365625 44.3715625 -21.328125 45.078125 C-25.53823033 48.44091353 -28.62259789 50.53582491 -34.125 50.0625 C-35.75989505 49.75725061 -37.3865101 49.40337248 -39 49 C-39.7940625 48.82210937 -40.588125 48.64421875 -41.40625 48.4609375 C-43.28188865 48.01844528 -45.14317831 47.5157838 -47 47 C-46.26953125 45.03515625 -46.26953125 45.03515625 -45 43 C-43.01171875 42.49609375 -43.01171875 42.49609375 -40.6875 42.4375 C-36.68924544 42.14870152 -34.18182746 41.6203285 -31 39 C-29.96642853 37.35394174 -28.95939668 35.69036558 -28 34 C-27.34 34 -26.68 34 -26 34 C-25.67 33.01 -25.34 32.02 -25 31 C-23.56911472 33.86177057 -24.40008303 35.93375773 -25 39 C-19.69786212 35.79730802 -19.69786212 35.79730802 -16 31 C-16.04125 30.07703125 -16.0825 29.1540625 -16.125 28.203125 C-15.97613975 24.38858099 -14.99907636 22.7605413 -12.875 19.625 C-11.91980469 18.19994141 -11.91980469 18.19994141 -10.9453125 16.74609375 C-8.79276387 13.70745582 -6.56273446 10.74144709 -4.2890625 7.79296875 C-2.52891797 5.34476773 -1.23477881 2.7439529 0 0 Z " fill="#B7B9FC" transform="translate(214,142)"/>
<path d="M0 0 C2.91174542 0.34446988 3.92915001 0.92652081 6 3.07421875 C6.66 3.93660156 7.32 4.79898438 8 5.6875 C8.69738281 6.59242188 9.39476562 7.49734375 10.11328125 8.4296875 C11.52474542 10.35255173 12.87305502 12.32205474 14.1875 14.3125 C16.17261786 17.25595062 18.46183999 19.52863368 21 22 C21.66 22.99 22.32 23.98 23 25 C23.66 24.34 24.32 23.68 25 23 C27.5 25.25 27.5 25.25 30 28 C30 29.32 30 30.64 30 32 C27.03 30.35 24.06 28.7 21 27 C21.763125 27.53625 22.52625 28.0725 23.3125 28.625 C26 31 26 31 27.4375 33.9375 C30.1528955 39.25967519 34.88827323 42.1434468 40 45 C39.67 45.99 39.34 46.98 39 48 C37.68 47.67 36.36 47.34 35 47 C35 46.34 35 45.68 35 45 C33.68 44.67 32.36 44.34 31 44 C31 43.34 31 42.68 31 42 C30.443125 41.938125 29.88625 41.87625 29.3125 41.8125 C26.70739101 40.89719144 25.54220747 39.58974737 23.6953125 37.59765625 C20.56735019 34.6498761 16.94799976 32.31701201 13.42578125 29.8671875 C9.93626891 27.18121826 8.73887389 24.67913032 7.8125 20.5 C7.54373047 19.33984375 7.54373047 19.33984375 7.26953125 18.15625 C7 16 7 16 8 13 C7.01 12.67 6.02 12.34 5 12 C3.61328125 9.78515625 3.61328125 9.78515625 2.3125 7.0625 C1.87550781 6.16660156 1.43851562 5.27070313 0.98828125 4.34765625 C0 2 0 2 0 0 Z " fill="#F3DFFD" transform="translate(365,143)"/>
<path d="M0 0 C4.0200263 -0.09941096 8.03956963 -0.17172063 12.06054688 -0.21972656 C13.42623368 -0.23975319 14.79183569 -0.26698332 16.15722656 -0.30175781 C18.12787102 -0.35066432 20.09915983 -0.37091347 22.0703125 -0.390625 C23.84559326 -0.4220459 23.84559326 -0.4220459 25.65673828 -0.45410156 C29.68260795 0.09271585 31.80350934 1.55422236 35 4 C35.928125 4.61875 35.928125 4.61875 36.875 5.25 C38.76630717 8.19203337 38.52615266 11.61075691 38 15 C37.34 15.99 36.68 16.98 36 18 C34.68 18 33.36 18 32 18 C31.34 19.32 30.68 20.64 30 22 C29.67 22 29.34 22 29 22 C29 18.7 29 15.4 29 12 C28.34 12 27.68 12 27 12 C26.79375 11.195625 26.5875 10.39125 26.375 9.5625 C25.694375 8.2940625 25.694375 8.2940625 25 7 C21.94727535 6.10169161 21.94727535 6.10169161 19 6 C19 5.34 19 4.68 19 4 C14.545 4.495 14.545 4.495 10 5 C9.67 7.64 9.34 10.28 9 13 C7.02 13.66 5.04 14.32 3 15 C3 17.64 3 20.28 3 23 C2.67 23 2.34 23 2 23 C2 15.74 2 8.48 2 1 C1.34 0.67 0.68 0.34 0 0 Z " fill="#F4F6FA" transform="translate(135,194)"/>
<path d="M0 0 C0.33 0 0.66 0 1 0 C1.66 4.29 2.32 8.58 3 13 C3.33 12.34 3.66 11.68 4 11 C5.65 11 7.3 11 9 11 C9.33 9.35 9.66 7.7 10 6 C10.268125 6.5775 10.53625 7.155 10.8125 7.75 C12.57120085 11.11356969 12.57120085 11.11356969 15 14 C19.61131636 15.11013172 22.27035679 14.94592864 27 14 C27.66 10.04 28.32 6.08 29 2 C29.33 2 29.66 2 30 2 C30.33 4.97 30.66 7.94 31 11 C33.31 10.34 35.62 9.68 38 9 C38 6.36 38 3.72 38 1 C38.66 0.67 39.32 0.34 40 0 C41.59593854 5.26659717 40.04615629 9.18342537 38.1875 14.1875 C35.18447049 18.77107135 31.11501514 20.57125938 26 22 C18.81601648 22.67873219 12.26776644 22.78677556 6 19 C2.95942428 16.35602111 1.27627886 14.82883658 0 11 C-0.0685495 9.10529184 -0.08480372 7.2083166 -0.0625 5.3125 C-0.05347656 4.31863281 -0.04445313 3.32476562 -0.03515625 2.30078125 C-0.02355469 1.54152344 -0.01195312 0.78226563 0 0 Z " fill="#9AAAE5" transform="translate(316,204)"/>
<path d="M0 0 C9.9 0 19.8 0 30 0 C30 2.31 30 4.62 30 7 C26.6717269 8.66413655 23.00266027 7.81867406 19.375 7.5625 C18.57320312 7.51029297 17.77140625 7.45808594 16.9453125 7.40429688 C14.96320897 7.27451629 12.98155501 7.13790265 11 7 C11.020625 8.2684375 11.04125 9.536875 11.0625 10.84375 C11.11534151 14.09350266 10.85016269 16.22475597 9 19 C7.35 19 5.7 19 4 19 C3.67 20.98 3.34 22.96 3 25 C2.67 25 2.34 25 2 25 C1.96241577 24.07719238 1.96241577 24.07719238 1.92407227 23.13574219 C1.80781513 20.34029844 1.68522358 17.54516702 1.5625 14.75 C1.52318359 13.78191406 1.48386719 12.81382812 1.44335938 11.81640625 C1.40146484 10.88183594 1.35957031 9.94726562 1.31640625 8.984375 C1.27974854 8.12553711 1.24309082 7.26669922 1.20532227 6.38183594 C1.03761836 3.70190314 1.03761836 3.70190314 0 0 Z " fill="#EFF4FD" transform="translate(176,193)"/>
<path d="M0 0 C0.96088383 2.88265149 1.11670941 4.67662271 1.09765625 7.66796875 C1.09443359 8.56064453 1.09121094 9.45332031 1.08789062 10.37304688 C1.07951172 11.30181641 1.07113281 12.23058594 1.0625 13.1875 C1.05798828 14.12787109 1.05347656 15.06824219 1.04882812 16.03710938 C1.03704626 18.35813712 1.02059558 20.67903644 1 23 C1.66 23 2.32 23 3 23 C2.3125 24.875 2.3125 24.875 1 27 C0.175 27.2475 -0.65 27.495 -1.5 27.75 C-4.13036772 28.72095667 -4.13036772 28.72095667 -4.76953125 30.8984375 C-5.26108629 32.91416679 -5.63755082 34.95710463 -6 37 C-8.97 37.495 -8.97 37.495 -12 38 C-12.33 37.34 -12.66 36.68 -13 36 C-12.34386719 35.46375 -11.68773437 34.9275 -11.01171875 34.375 C-8.45050759 31.35127886 -8.60309687 29.89587213 -8.8125 26 C-8.97977641 22.3832128 -9.0187389 19.46903899 -8 16 C-7.78601563 14.96746094 -7.57203125 13.93492187 -7.3515625 12.87109375 C-7.11179688 11.73800781 -6.87203125 10.60492188 -6.625 9.4375 C-6.39039063 8.30183594 -6.15578125 7.16617188 -5.9140625 5.99609375 C-4.86512273 2.55790227 -3.89152613 0 0 0 Z " fill="#EECEFB" transform="translate(242,150)"/>
<path d="M0 0 C0.33 0 0.66 0 1 0 C1.78316087 8.96284102 1.78316087 8.96284102 -1.3125 13.0625 C-6.16717791 16.56238407 -10.56761139 16.21531388 -16.3125 16.25 C-17.15490234 16.270625 -17.99730469 16.29125 -18.86523438 16.3125 C-23.99460383 16.34458362 -27.57523581 15.89825572 -32 13 C-32.33 12.34 -32.66 11.68 -33 11 C-32.34 11 -31.68 11 -31 11 C-30.9175 10.401875 -30.835 9.80375 -30.75 9.1875 C-29.79544128 6.4033704 -28.42867729 5.56688858 -26 4 C-25.20335937 4.96679688 -25.20335937 4.96679688 -24.390625 5.953125 C-21.39521524 8.51782225 -19.64317797 8.58073139 -15.75 8.75 C-14.67234375 8.80671875 -13.5946875 8.8634375 -12.484375 8.921875 C-11.66453125 8.94765625 -10.8446875 8.9734375 -10 9 C-10 7.02 -10 5.04 -10 3 C-9.34 3 -8.68 3 -8 3 C-7.67 4.32 -7.34 5.64 -7 7 C-6.34 6.67 -5.68 6.34 -5 6 C-5 7.32 -5 8.64 -5 10 C-4.01 10 -3.02 10 -2 10 C-1.34 6.7 -0.68 3.4 0 0 Z " fill="#A9B4DE" transform="translate(441,210)"/>
<path d="M0 0 C1.32 0.33 2.64 0.66 4 1 C4.33 13.54 4.66 26.08 5 39 C5.33 34.38 5.66 29.76 6 25 C8.31 25 10.62 25 13 25 C13.33 26.32 13.66 27.64 14 29 C14.33 19.76 14.66 10.52 15 1 C15.33 1 15.66 1 16 1 C16.16746774 5.80529872 16.32804214 10.61075903 16.48217773 15.41650391 C16.53561099 17.05198393 16.5909414 18.68740311 16.64819336 20.32275391 C16.73006761 22.67076494 16.80515983 25.0189089 16.87890625 27.3671875 C16.90594131 28.10057343 16.93297638 28.83395935 16.96083069 29.58956909 C17.11387171 34.77225659 17.11387171 34.77225659 16 37 C13.34243936 38.74839516 11.02617555 39.99127482 8 41 C6.79117904 43.00016466 6.79117904 43.00016466 6 45 C5.34 45 4.68 45 4 45 C3.896875 45.639375 3.79375 46.27875 3.6875 46.9375 C3.460625 47.618125 3.23375 48.29875 3 49 C1.515 49.495 1.515 49.495 0 50 C0.20935684 49.18922752 0.20935684 49.18922752 0.42294312 48.36207581 C1.79231166 42.71260602 2.3309917 37.39071329 2.4140625 31.58984375 C2.43342865 30.73693253 2.4527948 29.8840213 2.4727478 29.00526428 C2.53190102 26.31610706 2.57866838 23.6269055 2.625 20.9375 C2.66323911 19.09959206 2.70229417 17.2617009 2.7421875 15.42382812 C2.8375485 10.9493572 2.92181253 6.47480262 3 2 C2.01 1.67 1.02 1.34 0 1 C0 0.67 0 0.34 0 0 Z " fill="#6779BC" transform="translate(114,191)"/>
<path d="M0 0 C1.32 0 2.64 0 4 0 C5.06347656 -0.05220703 5.06347656 -0.05220703 6.1484375 -0.10546875 C11.20546969 -0.29178046 14.6952997 0.02770694 19 3 C21.87243796 6.85707981 22.34451179 9.54980916 22.1875 14.3125 C22.16042969 15.38113281 22.13335937 16.44976562 22.10546875 17.55078125 C22.07066406 18.35902344 22.03585937 19.16726562 22 20 C19.03 20.66 16.06 21.32 13 22 C12.95875 20.494375 12.9175 18.98875 12.875 17.4375 C12.38274211 12.5565204 11.10069048 9.78197735 7.69921875 6.2734375 C5.24211715 4.43202343 3.0263039 4.07205485 0 4 C0 2.68 0 1.36 0 0 Z " fill="#E7E6F0" transform="translate(333,194)"/>
<path d="M0 0 C4.62 0 9.24 0 14 0 C13.67 0.99 13.34 1.98 13 3 C12.34 3 11.68 3 11 3 C11.14148989 4.6045556 11.28835686 6.20863767 11.4375 7.8125 C11.51871094 8.70582031 11.59992188 9.59914062 11.68359375 10.51953125 C11.93489767 13.12743559 11.93489767 13.12743559 13 16 C10.69 16.99 8.38 17.98 6 19 C5.67 22.96 5.34 26.92 5 31 C4.01 31 3.02 31 2 31 C1.37275475 22.80100854 0.88041183 14.71639023 1.0625 6.48828125 C1.08335946 3.71549053 1.08335946 3.71549053 0 0 Z " fill="#D1D3E5" transform="translate(277,193)"/>
<path d="M0 0 C0.33 0 0.66 0 1 0 C1 2.97 1 5.94 1 9 C5.29 9 9.58 9 14 9 C14 6.03 14 3.06 14 0 C14.33 0 14.66 0 15 0 C15 3.3 15 6.6 15 10 C10.545 10.495 10.545 10.495 6 11 C6 11.66 6 12.32 6 13 C9.3 13 12.6 13 16 13 C15.67 17.62 15.34 22.24 15 27 C14.67 27 14.34 27 14 27 C14 23.37 14 19.74 14 16 C9.71 16 5.42 16 1 16 C1.66 20.29 2.32 24.58 3 29 C-1.29 29 -5.58 29 -10 29 C-9.67 28.34 -9.34 27.68 -9 27 C-8.01 27.33 -7.02 27.66 -6 28 C-6 23.71 -6 19.42 -6 15 C-1 13 -1 13 2 13 C1.34 12.01 0.68 11.02 0 10 C-0.1953125 7.51953125 -0.1953125 7.51953125 -0.125 4.8125 C-0.10695313 3.91144531 -0.08890625 3.01039063 -0.0703125 2.08203125 C-0.04710937 1.39496094 -0.02390625 0.70789063 0 0 Z " fill="#9599B0" transform="translate(288,196)"/>
<path d="M0 0 C0.66 0.33 1.32 0.66 2 1 C1.01 3.31 0.02 5.62 -1 8 C0.65 7.67 2.3 7.34 4 7 C4.33 5.02 4.66 3.04 5 1 C7.1385485 3.1385485 7.42655063 4.13275314 8 7 C7.34 7 6.68 7 6 7 C6 7.66 6 8.32 6 9 C3.03 9 0.06 9 -3 9 C-2.67 10.32 -2.34 11.64 -2 13 C1.96 13.33 5.92 13.66 10 14 C10 14.33 10 14.66 10 15 C5.05 15 0.1 15 -5 15 C-5.99 17.475 -5.99 17.475 -7 20 C-7.33 20.66 -7.66 21.32 -8 22 C-10.94140625 22.4140625 -10.94140625 22.4140625 -14.5625 22.625 C-15.76003906 22.69976562 -16.95757812 22.77453125 -18.19140625 22.8515625 C-19.58166016 22.92503906 -19.58166016 22.92503906 -21 23 C-20.34 22.67 -19.68 22.34 -19 22 C-18.67 21.01 -18.34 20.02 -18 19 C-17.55011719 18.41734375 -17.10023438 17.8346875 -16.63671875 17.234375 C-14.56497693 14.40612602 -13.25006473 11.44458829 -11.8125 8.25 C-11.28269531 7.07953125 -10.75289062 5.9090625 -10.20703125 4.703125 C-9.80871094 3.81109375 -9.41039062 2.9190625 -9 2 C-8.01 3.485 -8.01 3.485 -7 5 C-4.43717258 5.72965366 -4.43717258 5.72965366 -2 6 C-2.33 4.68 -2.66 3.36 -3 2 C-2.01 1.34 -1.02 0.68 0 0 Z " fill="#9CADD0" transform="translate(224,203)"/>
<path d="M0 0 C0.99 0.33 1.98 0.66 3 1 C2.84917969 1.68707031 2.69835937 2.37414062 2.54296875 3.08203125 C1.94715644 6.28398661 1.59735146 9.44315288 1.3125 12.6875 C1.20550781 13.82574219 1.09851563 14.96398437 0.98828125 16.13671875 C0.66448558 19.13395682 0.66448558 19.13395682 3 21 C2.9765625 24.0390625 2.9765625 24.0390625 2.625 27.625 C2.51414062 28.81351563 2.40328125 30.00203125 2.2890625 31.2265625 C2.19367188 32.14179688 2.09828125 33.05703125 2 34 C2.99 34.33 3.98 34.66 5 35 C5.96070434 37.88211302 6.10581883 39.69850044 6.0625 42.6875 C6.05347656 43.49574219 6.04445313 44.30398437 6.03515625 45.13671875 C6.02355469 45.75160156 6.01195312 46.36648437 6 47 C5.34 47 4.68 47 4 47 C3.7525 45.96875 3.505 44.9375 3.25 43.875 C2.15920937 39.99399857 0.37066116 37.23990359 -2 34 C-2.66 34.66 -3.32 35.32 -4 36 C-4.98275588 33.05173237 -5.13414725 31.07347496 -5.125 28 C-5.12757813 27.13375 -5.13015625 26.2675 -5.1328125 25.375 C-5 23 -5 23 -4 20 C-3.84848809 18.10610107 -3.72702657 16.20970837 -3.625 14.3125 C-3.22998147 8.98298772 -2.15431283 4.8706203 0 0 Z " fill="#7B7BEF" transform="translate(284,113)"/>
<path d="M0 0 C3.97222682 0.56746097 6.690523 1.735621 10 4 C10.8971875 4.5878125 10.8971875 4.5878125 11.8125 5.1875 C13.76094732 8.16144591 13.53527737 11.55197957 13 15 C12.01 16.485 12.01 16.485 11 18 C9.68 18 8.36 18 7 18 C6.34 19.32 5.68 20.64 5 22 C4.67 22 4.34 22 4 22 C4 18.7 4 15.4 4 12 C3.34 12 2.68 12 2 12 C1.71125 11.195625 1.4225 10.39125 1.125 9.5625 C0.26737432 6.8673532 0.26737432 6.8673532 -2 6 C-1.67 5.195625 -1.34 4.39125 -1 3.5625 C0.06059041 1.30318875 0.06059041 1.30318875 0 0 Z " fill="#E6EEFA" transform="translate(160,194)"/>
<path d="M0 0 C0.99 0.66 1.98 1.32 3 2 C3.29296875 4.6015625 3.29296875 4.6015625 3.1875 7.625 C3.16042969 8.62789062 3.13335937 9.63078125 3.10546875 10.6640625 C3.07066406 11.43492187 3.03585937 12.20578125 3 13 C1.02 13.66 -0.96 14.32 -3 15 C-3 13.68 -3 12.36 -3 11 C-3.99 11.495 -3.99 11.495 -5 12 C-5 10.35 -5 8.7 -5 7 C-8.96 6.67 -12.92 6.34 -17 6 C-16.67 5.01 -16.34 4.02 -16 3 C-16.99 2.01 -17.98 1.02 -19 0 C-17.95199219 0.01740234 -17.95199219 0.01740234 -16.8828125 0.03515625 C-15.97273438 0.04417969 -15.06265625 0.05320313 -14.125 0.0625 C-12.76761719 0.07990234 -12.76761719 0.07990234 -11.3828125 0.09765625 C-1.5765212 -0.30424093 -1.5765212 -0.30424093 0 0 Z " fill="#D8E2FA" transform="translate(438,206)"/>
<path d="M0 0 C1.0161846 1.32103998 2.01133494 2.65824027 3 4 C4.0828125 5.4540625 4.0828125 5.4540625 5.1875 6.9375 C7.03630968 10.06135085 7.41587631 11.46505137 7 15 C7.66 15 8.32 15 9 15 C11.29648649 17.5614657 12 18.47967572 12 22 C13.98 22 15.96 22 18 22 C18.0825 22.78375 18.165 23.5675 18.25 24.375 C18.4975 25.24125 18.745 26.1075 19 27 C20.31647119 27.69937532 21.65022151 28.36729133 23 29 C24.27677226 31.94639752 23.96706319 33.99135897 23 37 C22.34 37 21.68 37 21 37 C20.77183594 36.24847656 20.54367187 35.49695313 20.30859375 34.72265625 C18.71980016 31.41701704 17.13678385 30.38319213 14.0625 28.4375 C7.72102101 24.39352297 5.96993599 21.22309865 4 14 C3.34 13.01 2.68 12.02 2 11 C0.72258585 7.0967901 0 4.12760017 0 0 Z " fill="#FAEAFD" transform="translate(281,145)"/>
<path d="M0 0 C0.33 0 0.66 0 1 0 C1.32712342 6.13053511 1.39366878 10.62669111 -2 16 C-2.66 16 -3.32 16 -4 16 C-4 16.66 -4 17.32 -4 18 C-7.4352048 20.29013653 -8.985331 20.17842973 -13 20 C-13.66 18.68 -14.32 17.36 -15 16 C-18.96 16 -22.92 16 -27 16 C-26.67 15.34 -26.34 14.68 -26 14 C-24.75283203 14.05220703 -24.75283203 14.05220703 -23.48046875 14.10546875 C-22.39378906 14.13253906 -21.30710938 14.15960938 -20.1875 14.1875 C-19.10855469 14.22230469 -18.02960938 14.25710937 -16.91796875 14.29296875 C-14.04122823 14.2327269 -14.04122823 14.2327269 -12.15625 12.78125 C-10.71552331 10.56175213 -10.50298571 8.94120279 -10.3125 6.3125 C-10.24675781 5.50425781 -10.18101562 4.69601563 -10.11328125 3.86328125 C-10.07589844 3.24839844 -10.03851563 2.63351563 -10 2 C-9.67 2 -9.34 2 -9 2 C-8.67 4.97 -8.34 7.94 -8 11 C-7.34 10.01 -6.68 9.02 -6 8 C-3.875 7.3125 -3.875 7.3125 -2 7 C-1.34 4.69 -0.68 2.38 0 0 Z " fill="#B2C0E4" transform="translate(173,204)"/>
<path d="M0 0 C0.33 0 0.66 0 1 0 C1.33 5.94 1.66 11.88 2 18 C2.33 17.01 2.66 16.02 3 15 C4.98 15 6.96 15 9 15 C9 17.64 9 20.28 9 23 C9.66 23.33 10.32 23.66 11 24 C10.01 24.33 9.02 24.66 8 25 C8 25.66 8 26.32 8 27 C13.94 27 19.88 27 26 27 C26 27.33 26 27.66 26 28 C17.09 28 8.18 28 -1 28 C-0.67 18.76 -0.34 9.52 0 0 Z " fill="#B2C5F7" transform="translate(177,197)"/>
<path d="M0 0 C3.63 0.33 7.26 0.66 11 1 C11 1.33 11 1.66 11 2 C8.03 2 5.06 2 2 2 C2.14062311 5.43778631 2.28726929 8.87513171 2.4375 12.3125 C2.47681641 13.28896484 2.51613281 14.26542969 2.55664062 15.27148438 C2.61948242 16.67817383 2.61948242 16.67817383 2.68359375 18.11328125 C2.72025146 18.97735596 2.75690918 19.84143066 2.79467773 20.73168945 C2.92747354 23.1647826 2.92747354 23.1647826 4 26 C-0.29 26 -4.58 26 -9 26 C-8.67 25.34 -8.34 24.68 -8 24 C-7.34 24 -6.68 24 -6 24 C-5.97421875 23.31292969 -5.9484375 22.62585938 -5.921875 21.91796875 C-5.86515625 21.01691406 -5.8084375 20.11585938 -5.75 19.1875 C-5.68039063 17.84751953 -5.68039063 17.84751953 -5.609375 16.48046875 C-5 14 -5 14 -3 12.53125 C-0.72626128 11.12914301 -0.72626128 11.12914301 -0.390625 8.30078125 C-0.32101562 6.82158203 -0.32101562 6.82158203 -0.25 5.3125 C-0.1675 3.559375 -0.085 1.80625 0 0 Z " fill="#D2DFF9" transform="translate(261,199)"/>
<path d="M0 0 C2.05078125 0.03255208 4.1015625 0.06510417 6.15234375 0.09765625 C5.55840993 1.39406003 4.95176386 2.68464464 4.33984375 3.97265625 C4.00339844 4.69195312 3.66695312 5.41125 3.3203125 6.15234375 C2.15234375 8.09765625 2.15234375 8.09765625 -0.84765625 10.09765625 C-6.96391434 10.22802054 -12.9929808 8.72395499 -18.84765625 7.09765625 C-18.2890625 5.171875 -18.2890625 5.171875 -16.84765625 3.09765625 C-13.625 2.3046875 -13.625 2.3046875 -9.78515625 1.91015625 C-6.31904427 1.53363444 -3.1016041 0.16393256 0 0 Z " fill="#F1F2FD" transform="translate(185.84765625,181.90234375)"/>
<path d="M0 0 C0.33 0 0.66 0 1 0 C1 11.88 1 23.76 1 36 C-5.36363636 33.45454545 -5.36363636 33.45454545 -7 31 C-7.72973403 28.3168241 -8.09958732 25.78258674 -8 23 C-6.8125 21.3125 -6.8125 21.3125 -5 20 C-1.0479895 15.99569446 -0.36462837 12.63234766 -0.25 7.1875 C-0.22035156 6.49462891 -0.19070313 5.80175781 -0.16015625 5.08789062 C-0.09000372 3.39253787 -0.04267338 1.69626688 0 0 Z " fill="#8F98BF" transform="translate(392,194)"/>
<path d="M0 0 C2.55375615 3.17494007 4.37447153 6.48103661 6.1875 10.125 C6.71730469 11.17945313 7.24710938 12.23390625 7.79296875 13.3203125 C9 16 9 16 9 18 C7.39482903 17.91266424 5.79078338 17.80447776 4.1875 17.6875 C3.29417969 17.62949219 2.40085938 17.57148438 1.48046875 17.51171875 C-1.3472279 16.92836716 -2.27093419 16.26871055 -4 14 C-4.96097201 11.11708398 -5.22621077 9.62642982 -4.1875 6.75 C-3 5 -3 5 -1 4 C-0.34786708 1.97536745 -0.34786708 1.97536745 0 0 Z " fill="#AAB7D9" transform="translate(240,208)"/>
<path d="M0 0 C3.72088066 5.58132098 3.78850189 13.41549724 3 20 C1.9189751 22.92207169 0.59856709 25.30241804 -1 28 C-1.66 27.34 -2.32 26.68 -3 26 C-2.625 22.875 -2.625 22.875 -2 20 C-3.98 20.99 -3.98 20.99 -6 22 C-6.33 21.01 -6.66 20.02 -7 19 C-6.03503098 17.10333676 -5.0644149 15.20915591 -4.0546875 13.3359375 C-2.54316817 9.98820209 -1.98396493 6.61212176 -1.39453125 3.00390625 C-1 1 -1 1 0 0 Z " fill="#6F5FE3" transform="translate(250,114)"/>
<path d="M0 0 C0.04898438 1.14597656 0.09796875 2.29195312 0.1484375 3.47265625 C0.22352801 5.00262535 0.29907306 6.53257218 0.375 8.0625 C0.4059375 8.81466797 0.436875 9.56683594 0.46875 10.34179688 C0.71952756 15.16926496 1.56556501 19.3538022 3 24 C3.52664577 30.31974922 3.52664577 30.31974922 1.5 32.9375 C1.005 33.288125 0.51 33.63875 0 34 C0 32.68 0 31.36 0 30 C0.66 30 1.32 30 2 30 C2 29.01 2 28.02 2 27 C0.02 27.33 -1.96 27.66 -4 28 C-4 24.04 -4 20.08 -4 16 C-2 18 -2 18 -1 22 C-1 17.38 -1 12.76 -1 8 C-2.65 8.33 -4.3 8.66 -6 9 C-7.36020151 10.96758273 -7.36020151 10.96758273 -8 13 C-9 11 -9 11 -8.25 7.5625 C-6.76481636 3.32972663 -4.9104282 0 0 0 Z " fill="#B078F3" transform="translate(248,134)"/>
<path d="M0 0 C0.33 0 0.66 0 1 0 C1.33 9.57 1.66 19.14 2 29 C-2.29 29 -6.58 29 -11 29 C-10.67 28.34 -10.34 27.68 -10 27 C-9.01 27.33 -8.02 27.66 -7 28 C-7.05800781 27.38511719 -7.11601562 26.77023438 -7.17578125 26.13671875 C-7.24345703 24.92435547 -7.24345703 24.92435547 -7.3125 23.6875 C-7.37050781 22.88699219 -7.42851562 22.08648437 -7.48828125 21.26171875 C-7.24658203 20.14216797 -7.24658203 20.14216797 -7 19 C-5.7934375 18.36578125 -5.7934375 18.36578125 -4.5625 17.71875 C-1.58152373 16.13711571 -1.58152373 16.13711571 -1.07421875 12.20703125 C-0.92200192 10.74442602 -0.79381657 9.27915634 -0.6875 7.8125 C-0.61466797 7.06291016 -0.54183594 6.31332031 -0.46679688 5.54101562 C-0.29050909 3.69587013 -0.14248587 1.84806305 0 0 Z " fill="#8E99C6" transform="translate(312,196)"/>
<path d="M0 0 C0.66 0.33 1.32 0.66 2 1 C3.00496852 4.01490557 3.10335303 6.04181692 3.0625 9.1875 C3.05347656 10.08855469 3.04445312 10.98960937 3.03515625 11.91796875 C3.02355469 12.60503906 3.01195312 13.29210937 3 14 C3.66 14 4.32 14 5 14 C4.3125 15.875 4.3125 15.875 3 18 C2.175 18.2475 1.35 18.495 0.5 18.75 C-2.13036772 19.72095667 -2.13036772 19.72095667 -2.76953125 21.8984375 C-3.26108629 23.91416679 -3.63755082 25.95710463 -4 28 C-5.98 28.33 -7.96 28.66 -10 29 C-10.33 28.34 -10.66 27.68 -11 27 C-10.38125 26.46375 -9.7625 25.9275 -9.125 25.375 C-6.7217098 22.68896977 -5.93977847 20.44585438 -5 17 C-4.01 17 -3.02 17 -2 17 C-0.99782936 13.41672247 -0.99782936 13.41672247 -2 10 C-1.66015625 7.6171875 -1.66015625 7.6171875 -1.0625 4.875 C-0.86785156 3.96492187 -0.67320312 3.05484375 -0.47265625 2.1171875 C-0.31667969 1.41851562 -0.16070312 0.71984375 0 0 Z " fill="#F3DFFD" transform="translate(240,159)"/>
<path d="M0 0 C2.93857547 0.34184771 3.94377625 0.94172586 6.03515625 3.109375 C6.70417969 3.98078125 7.37320312 4.8521875 8.0625 5.75 C8.73410156 6.61109375 9.40570313 7.4721875 10.09765625 8.359375 C11.88343426 10.83819621 13.47323875 13.35551633 15 16 C13.68 15.67 12.36 15.34 11 15 C11.22816406 15.59167969 11.45632813 16.18335938 11.69140625 16.79296875 C14.54657293 24.64147627 14.54657293 24.64147627 13 29 C8.97724293 25.91588624 8.19900768 22.86409245 7.19921875 18.12109375 C7 16 7 16 8 13 C7.01 12.67 6.02 12.34 5 12 C3.61328125 9.78515625 3.61328125 9.78515625 2.3125 7.0625 C1.87550781 6.16660156 1.43851562 5.27070313 0.98828125 4.34765625 C0 2 0 2 0 0 Z " fill="#DAC7FA" transform="translate(365,143)"/>
<path d="M0 0 C2.67953841 2.67953841 2.97047356 5.39665745 4 9 C4.66 9.66 5.32 10.32 6 11 C6.4331853 12.66609732 6.86564369 14.33239001 7.29296875 16 C8.11005796 18.31132419 9.25883199 20.09306561 10.625 22.125 C12.66170702 25.2371364 13.74001161 27.19422598 13 31 C12 33.3125 12 33.3125 11 35 C12.65 35.33 14.3 35.66 16 36 C16 36.66 16 37.32 16 38 C12.77208445 40.1519437 11.71599191 40.20086443 8 40 C8.11859375 39.28714844 8.2371875 38.57429688 8.359375 37.83984375 C9.3020763 30.8355731 8.82308662 27.84707365 5 22 C4.63858045 19.67085177 4.30300475 17.33746522 4 15 C3.2575 13.8553125 3.2575 13.8553125 2.5 12.6875 C0.25745971 8.66961531 0.25535549 4.53476132 0 0 Z " fill="#BFB7FA" transform="translate(281,149)"/>
<path d="M0 0 C8.58 0 17.16 0 26 0 C26 0.33 26 0.66 26 1 C18.41 1.33 10.82 1.66 3 2 C3.33 6.62 3.66 11.24 4 16 C5.65 15.34 7.3 14.68 9 14 C9.33 11.36 9.66 8.72 10 6 C10.33 6 10.66 6 11 6 C11.02703381 7.93742341 11.04641125 9.87495479 11.0625 11.8125 C11.07410156 12.89144531 11.08570313 13.97039062 11.09765625 15.08203125 C11 18 11 18 10 21 C8.68 21.33 7.36 21.66 6 22 C5.34 24.97 4.68 27.94 4 31 C3.34 31 2.68 31 2 31 C2 21.76 2 12.52 2 3 C1.34 3 0.68 3 0 3 C0 2.01 0 1.02 0 0 Z " fill="#A8ACC7" transform="translate(134,193)"/>
<path d="M0 0 C-0.99 1.485 -0.99 1.485 -2 3 C-1.34 3.33 -0.68 3.66 0 4 C0.625 6.0625 0.625 6.0625 1 8 C1.99 8 2.98 8 4 8 C4.66 8.66 5.32 9.32 6 10 C5.67 10.99 5.34 11.98 5 13 C2.525 12.01 2.525 12.01 0 11 C-0.0825 11.78375 -0.165 12.5675 -0.25 13.375 C-0.4975 14.24125 -0.745 15.1075 -1 16 C-2.98 16.99 -2.98 16.99 -5 18 C-5 14.7 -5 11.4 -5 8 C-5.66 8 -6.32 8 -7 8 C-7.33 5.69 -7.66 3.38 -8 1 C-5.29120665 -0.35439668 -2.99066732 -0.06501451 0 0 Z " fill="#EAF2FC" transform="translate(365,194)"/>
<path d="M0 0 C0.19573608 1.43640171 0.38127816 2.87419504 0.5625 4.3125 C0.66691406 5.11300781 0.77132813 5.91351563 0.87890625 6.73828125 C1 9 1 9 0 12 C-0.99 12.33 -1.98 12.66 -3 13 C-3.66 12.67 -4.32 12.34 -5 12 C-5.33 13.32 -5.66 14.64 -6 16 C-7.75163456 12.22777911 -8.22490027 9.333361 -8.125 5.1875 C-8.10695313 4.21167969 -8.08890625 3.23585937 -8.0703125 2.23046875 C-8.04710937 1.49441406 -8.02390625 0.75835937 -8 0 C-5.13822943 -1.43088528 -3.06624227 -0.59991697 0 0 Z " fill="#EDF2FC" transform="translate(325,203)"/>
<path d="M0 0 C0.66 0 1.32 0 2 0 C2.33 1.32 2.66 2.64 3 4 C3.66 3.67 4.32 3.34 5 3 C4.75 5.875 4.75 5.875 4 9 C0.79568448 11.26318789 -2.09904994 11.24074458 -5.9375 11.1875 C-7.46697266 11.17783203 -7.46697266 11.17783203 -9.02734375 11.16796875 C-11.78374048 11.01221966 -14.31378395 10.61837386 -17 10 C-16.25 5.25 -16.25 5.25 -14 3 C-13.34 3.66 -12.68 4.32 -12 5 C-9.10776497 5.46396693 -9.10776497 5.46396693 -5.875 5.625 C-4.23144531 5.73714844 -4.23144531 5.73714844 -2.5546875 5.8515625 C-1.71164062 5.90054688 -0.86859375 5.94953125 0 6 C0 4.02 0 2.04 0 0 Z " fill="#B1C1F0" transform="translate(431,213)"/>
<path d="M0 0 C0.99 0 1.98 0 3 0 C3.10812003 2.75105422 3.18734945 5.49785087 3.25 8.25 C3.28351563 9.02730469 3.31703125 9.80460938 3.3515625 10.60546875 C3.45049692 16.39313225 3.45049692 16.39313225 1.109375 19.546875 C-1 21 -1 21 -3 21 C-3 14.73 -3 8.46 -3 2 C-2.01 2.495 -2.01 2.495 -1 3 C-0.67 2.01 -0.34 1.02 0 0 Z " fill="#F9F9FD" transform="translate(389,194)"/>
<path d="M0 0 C1.32 0.33 2.64 0.66 4 1 C4.33 13.54 4.66 26.08 5 39 C5.99 39 6.98 39 8 39 C8.33 38.01 8.66 37.02 9 36 C9.66 36 10.32 36 11 36 C11.33 36.99 11.66 37.98 12 39 C11.38125 39.2475 10.7625 39.495 10.125 39.75 C7.64931313 41.20628639 7.04874998 42.37812506 6 45 C5.34 45 4.68 45 4 45 C3.896875 45.639375 3.79375 46.27875 3.6875 46.9375 C3.460625 47.618125 3.23375 48.29875 3 49 C1.515 49.495 1.515 49.495 0 50 C0.20935684 49.18922752 0.20935684 49.18922752 0.42294312 48.36207581 C1.79231166 42.71260602 2.3309917 37.39071329 2.4140625 31.58984375 C2.43342865 30.73693253 2.4527948 29.8840213 2.4727478 29.00526428 C2.53190102 26.31610706 2.57866838 23.6269055 2.625 20.9375 C2.66323911 19.09959206 2.70229417 17.2617009 2.7421875 15.42382812 C2.8375485 10.9493572 2.92181253 6.47480262 3 2 C2.01 1.67 1.02 1.34 0 1 C0 0.67 0 0.34 0 0 Z " fill="#837FA5" transform="translate(114,191)"/>
<path d="M0 0 C1.85163386 2.72299097 1.99554719 4.08163486 1.8125 7.4375 C0.45430509 13.39266228 -1.98900871 16.53085218 -7 20 C-7.66 20 -8.32 20 -9 20 C-9 19.34 -9 18.68 -9 18 C-9.66 17.67 -10.32 17.34 -11 17 C-9.35 16.67 -7.7 16.34 -6 16 C-7.94603274 15.40929986 -7.94603274 15.40929986 -10 15 C-10.33 15.33 -10.66 15.66 -11 16 C-12.99958364 16.04080783 -15.00045254 16.04254356 -17 16 C-14 14 -14 14 -12 14 C-11.34 10.04 -10.68 6.08 -10 2 C-9.67 2 -9.34 2 -9 2 C-8.67 4.97 -8.34 7.94 -8 11 C-5.69 10.34 -3.38 9.68 -1 9 C-1.020625 7.700625 -1.04125 6.40125 -1.0625 5.0625 C-1.08399454 3.70834367 -1.07148199 2.35243917 -1 1 C-0.67 0.67 -0.34 0.34 0 0 Z " fill="#919DC4" transform="translate(355,204)"/>
<path d="M0 0 C4.81824051 -0.44423494 9.62994747 -0.66288082 13.74609375 2.22509766 C17.49124226 5.5148412 20.77422531 9.20799891 24 13 C20.25 14.109375 20.25 14.109375 18 13.125 C17.34 12.75375 16.68 12.3825 16 12 C14.9790625 11.7834375 14.9790625 11.7834375 13.9375 11.5625 C11.59413001 10.88216678 10.58097427 9.81812041 9 8 C9.66 8 10.32 8 11 8 C11 7.34 11 6.68 11 6 C10.01 5.67 9.02 5.34 8 5 C8.66 4.34 9.32 3.68 10 3 C7.36 3.33 4.72 3.66 2 4 C1.34 2.68 0.68 1.36 0 0 Z " fill="#DCDCE7" transform="translate(354,192)"/>
<path d="M0 0 C0.66 0.33 1.32 0.66 2 1 C2.92525361 5.30071585 3.40707774 9.63778624 4 14 C-0.29 14 -4.58 14 -9 14 C-8.67 13.34 -8.34 12.68 -8 12 C-7.01 12.33 -6.02 12.66 -5 13 C-5.103125 11.783125 -5.20625 10.56625 -5.3125 9.3125 C-5.34591521 5.54994773 -5.09330298 5.11196358 -2.5 2 C-1.675 1.34 -0.85 0.68 0 0 Z " fill="#B1C4FA" transform="translate(287,211)"/>
<path d="M0 0 C0.33 5.61 0.66 11.22 1 17 C-1 14 -1 14 -2 10 C-2.33 13.3 -2.66 16.6 -3 20 C-2.34 20 -1.68 20 -1 20 C-1.33 21.98 -1.66 23.96 -2 26 C-4.26849666 22.34827367 -4.3895951 18.9872882 -4.625 14.75 C-4.69976562 13.48671875 -4.77453125 12.2234375 -4.8515625 10.921875 C-4.92503906 9.47554687 -4.92503906 9.47554687 -5 8 C-5.99 8.33 -6.98 8.66 -8 9 C-7.64598897 5.81390075 -7.16972964 4.20933322 -5.125 1.6875 C-3 0 -3 0 0 0 Z " fill="#B581F7" transform="translate(247,142)"/>
<path d="M0 0 C2 0 2 0 3.4375 1.21484375 C7.64065856 5.84882606 9.18748462 9.82208131 10 16 C7 15 7 15 5 12 C4.34 12 3.68 12 3 12 C2.67 11.34 2.34 10.68 2 10 C1.67 10.66 1.34 11.32 1 12 C-0.875 11.6875 -0.875 11.6875 -3 11 C-3.66 10.01 -4.32 9.02 -5 8 C-3.68 8.33 -2.36 8.66 -1 9 C-0.67 6.03 -0.34 3.06 0 0 Z " fill="#7865FA" transform="translate(296,154)"/>
<path d="M0 0 C1.60294922 0.01353516 1.60294922 0.01353516 3.23828125 0.02734375 C4.04652344 0.03894531 4.85476562 0.05054688 5.6875 0.0625 C5.3575 1.7125 5.0275 3.3625 4.6875 5.0625 C-1.36079486 5.95854368 -7.2019576 6.17519443 -13.3125 6.0625 C-13.3125 5.0725 -13.3125 4.0825 -13.3125 3.0625 C-12.6525 3.0625 -11.9925 3.0625 -11.3125 3.0625 C-11.3125 2.4025 -11.3125 1.7425 -11.3125 1.0625 C-7.47525828 0.15836327 -3.93747726 -0.04326898 0 0 Z " fill="#F6F5FB" transform="translate(199.3125,193.9375)"/>
<path d="M0 0 C0.66 0.66 1.32 1.32 2 2 C2.66 1.67 3.32 1.34 4 1 C4.66 1.33 5.32 1.66 6 2 C6 2.66 6 3.32 6 4 C4.35 4.33 2.7 4.66 1 5 C0.22757731 6.83700789 0.22757731 6.83700789 0 9 C1.41666667 10.58333333 1.41666667 10.58333333 3 12 C3 12.99 3 13.98 3 15 C-3.435 15.495 -3.435 15.495 -10 16 C-9.34 15.67 -8.68 15.34 -8 15 C-7.67 14.01 -7.34 13.02 -7 12 C-6.566875 11.443125 -6.13375 10.88625 -5.6875 10.3125 C-3.33967061 7.09510416 -1.71426153 3.5851561 0 0 Z " fill="#A7B0D6" transform="translate(213,210)"/>
<path d="M0 0 C1.0161846 1.32103998 2.01133494 2.65824027 3 4 C4.0828125 5.4540625 4.0828125 5.4540625 5.1875 6.9375 C7.03630968 10.06135085 7.41587631 11.46505137 7 15 C7.66 15 8.32 15 9 15 C11.29648649 17.5614657 12 18.47967572 12 22 C12.66 22.33 13.32 22.66 14 23 C12.35 23.66 10.7 24.32 9 25 C6.02345213 21.61755924 5.17230506 18.29845187 4 14 C3.34 13.01 2.68 12.02 2 11 C0.72258585 7.0967901 0 4.12760017 0 0 Z " fill="#F1E9FE" transform="translate(281,145)"/>
<path d="M0 0 C5.43133021 0.77590432 9.32167898 2.9344873 13 7 C12.67 7.66 12.34 8.32 12 9 C9.37886292 9 7.49064888 8.68707555 5 8 C4.01 9.32 3.02 10.64 2 12 C1.71125 11.195625 1.4225 10.39125 1.125 9.5625 C0.26737432 6.8673532 0.26737432 6.8673532 -2 6 C-1.67 5.195625 -1.34 4.39125 -1 3.5625 C0.06059041 1.30318875 0.06059041 1.30318875 0 0 Z " fill="#D8D6E4" transform="translate(160,194)"/>
<path d="M0 0 C0.99 0.33 1.98 0.66 3 1 C3 4.3 3 7.6 3 11 C0.03 11.66 -2.94 12.32 -6 13 C-6 9.37 -6 5.74 -6 2 C-3.03 2.495 -3.03 2.495 0 3 C0 2.01 0 1.02 0 0 Z " fill="#E7EFFD" transform="translate(352,203)"/>
<path d="M0 0 C1.1446875 0.495 1.1446875 0.495 2.3125 1 C4.99069135 2.17436686 4.99069135 2.17436686 8 2 C7.67 5.3 7.34 8.6 7 12 C6.01 11.67 5.02 11.34 4 11 C4 10.34 4 9.68 4 9 C2.68 9 1.36 9 0 9 C0 11.64 0 14.28 0 17 C-0.33 17 -0.66 17 -1 17 C-1.02684679 14.35409986 -1.04676357 11.70846904 -1.0625 9.0625 C-1.07087891 8.30775391 -1.07925781 7.55300781 -1.08789062 6.77539062 C-1.09652441 4.85005687 -1.05224333 2.92464419 -1 1 C-0.67 0.67 -0.34 0.34 0 0 Z " fill="#E5ECFB" transform="translate(463,201)"/>
<path d="M0 0 C1.43088528 2.86177057 0.59991697 4.93375773 0 8 C1.98 7.01 3.96 6.02 6 5 C6 5.66 6 6.32 6 7 C6.66 7 7.32 7 8 7 C6.64531705 11.87685861 4.28324091 13.48592381 0 16 C0.165 15.195625 0.33 14.39125 0.5 13.5625 C1.03191839 11.2715557 1.03191839 11.2715557 1 10 C-2.54865136 9.91934883 -5.58389775 10.05685873 -9 11 C-8.04956626 9.66102417 -7.08940853 8.32894573 -6.125 7 C-5.59132812 6.2575 -5.05765625 5.515 -4.5078125 4.75 C-4.01023438 4.1725 -3.51265625 3.595 -3 3 C-2.34 3 -1.68 3 -1 3 C-0.67 2.01 -0.34 1.02 0 0 Z " fill="#AEB2FC" transform="translate(189,173)"/>
<path d="M0 0 C3.43755988 1.24134107 6.34880683 2.4434923 9 5 C9.75 7.6875 9.75 7.6875 10 10 C11.32 9.67 12.64 9.34 14 9 C13.67 9.66 13.34 10.32 13 11 C10.36 10.67 7.72 10.34 5 10 C5 10.66 5 11.32 5 12 C3.35 12 1.7 12 0 12 C-0.06978435 9.48776344 -0.0831468 7.31411014 0.5625 4.875 C1.22123618 2.79116759 1.22123618 2.79116759 0 0 Z " fill="#DFC2FC" transform="translate(292,172)"/>
<path d="M0 0 C0 0.99 0 1.98 0 3 C-0.66 3 -1.32 3 -2 3 C-2 7.29 -2 11.58 -2 16 C-8.625 19.125 -8.625 19.125 -12 18 C-11.030625 17.38125 -10.06125 16.7625 -9.0625 16.125 C-5.97164638 14.34321154 -5.97164638 14.34321154 -5 12 C-5.66 12 -6.32 12 -7 12 C-7 9.03 -7 6.06 -7 3 C-6.34 3.66 -5.68 4.32 -5 5 C-4.814375 4.0409375 -4.814375 4.0409375 -4.625 3.0625 C-4.41875 2.381875 -4.2125 1.70125 -4 1 C-2 0 -2 0 0 0 Z " fill="#D7B7FB" transform="translate(250,161)"/>
<path d="M0 0 C0.33 0 0.66 0 1 0 C1 5.28 1 10.56 1 16 C0.01 16.33 -0.98 16.66 -2 17 C-2.66 16.67 -3.32 16.34 -4 16 C-4.33 16.66 -4.66 17.32 -5 18 C-8.4375 18.75 -8.4375 18.75 -12 19 C-12.66 18.34 -13.32 17.68 -14 17 C-13.01 16.34 -12.02 15.68 -11 15 C-10.27034634 12.43717258 -10.27034634 12.43717258 -10 10 C-8.35 9.67 -6.7 9.34 -5 9 C-4.01 10.485 -4.01 10.485 -3 12 C-2.34 12 -1.68 12 -1 12 C-0.67 8.04 -0.34 4.08 0 0 Z " fill="#98A2C8" transform="translate(498,201)"/>
<path d="M0 0 C0.99 0 1.98 0 3 0 C2.67 1.98 2.34 3.96 2 6 C-4.6 5.67 -11.2 5.34 -18 5 C-18 4.34 -18 3.68 -18 3 C-11.78350981 1.28510616 -6.34546714 0.04754857 0 2 C0 1.34 0 0.68 0 0 Z " fill="#CCE4FB" transform="translate(203,219)"/>
<path d="M0 0 C2.97 0 5.94 0 9 0 C9 2.64 9 5.28 9 8 C6.03 8 3.06 8 0 8 C0 5.36 0 2.72 0 0 Z " fill="#C2D0F6" transform="translate(447,218)"/>
<path d="M0 0 C2.90860288 0.09859671 5.23597906 0.20138982 8 1 C10.5 3.75 10.5 3.75 11.63671875 5.3671875 C14.1433125 8.36935423 17.62389797 10.10670209 21 12 C20.67 12.99 20.34 13.98 20 15 C18.68 14.67 17.36 14.34 16 14 C16 13.34 16 12.68 16 12 C14.68 11.67 13.36 11.34 12 11 C12 10.34 12 9.68 12 9 C11.443125 8.938125 10.88625 8.87625 10.3125 8.8125 C7.02800125 7.65848693 5.34557016 5.52599863 3 3 C2.401875 2.401875 1.80375 1.80375 1.1875 1.1875 C0.795625 0.795625 0.40375 0.40375 0 0 Z " fill="#C3B4FB" transform="translate(384,176)"/>
<path d="M0 0 C1.32 0 2.64 0 4 0 C4 0.66 4 1.32 4 2 C2.68 2.33 1.36 2.66 0 3 C0.33 3.99 0.66 4.98 1 6 C-2.67387495 6.85298376 -6.0447393 7.10789471 -9.8125 7.0625 C-11.27623047 7.04896484 -11.27623047 7.04896484 -12.76953125 7.03515625 C-13.87361328 7.01775391 -13.87361328 7.01775391 -15 7 C-13.125 3.125 -13.125 3.125 -12 2 C-9.16027465 1.67648699 -6.31926263 1.4869571 -3.46875 1.28125 C-1.0586395 1.26614735 -1.0586395 1.26614735 0 0 Z " fill="#AEC0F4" transform="translate(345,218)"/>
<path d="M0 0 C0.99 0.33 1.98 0.66 3 1 C3.66 2.98 4.32 4.96 5 7 C0.38 7 -4.24 7 -9 7 C-9.33 6.01 -9.66 5.02 -10 4 C-9.67 3.34 -9.34 2.68 -9 2 C-6.03 2 -3.06 2 0 2 C0 1.34 0 0.68 0 0 Z " fill="#CCE1F4" transform="translate(230,210)"/>
<path d="M0 0 C0.33 0.66 0.66 1.32 1 2 C2.64363134 2.72159424 4.31050386 3.39351421 6 4 C6.1875 6.375 6.1875 6.375 6 9 C5.01 9.66 4.02 10.32 3 11 C2.01 12.485 2.01 12.485 1 14 C0.87625 13.360625 0.7525 12.72125 0.625 12.0625 C0.41875 11.381875 0.2125 10.70125 0 10 C-0.66 9.67 -1.32 9.34 -2 9 C-2.73075648 6.6859378 -3.40138258 4.35171131 -4 2 C-3.01 2 -2.02 2 -1 2 C-0.67 1.34 -0.34 0.68 0 0 Z M2 3 C1.34 3.66 0.68 4.32 0 5 C0.99 5 1.98 5 3 5 C2.67 4.34 2.34 3.68 2 3 Z " fill="#E7EDFA" transform="translate(234,203)"/>
<path d="M0 0 C0.2475 0.5775 0.495 1.155 0.75 1.75 C1.93275056 4.12162133 1.93275056 4.12162133 4.0625 6.0625 C6.37124088 8.37124088 6.95739404 10.01324593 7.09765625 13.26171875 C7.08605469 14.06222656 7.07445312 14.86273438 7.0625 15.6875 C7.05347656 16.49574219 7.04445313 17.30398437 7.03515625 18.13671875 C7.02355469 18.75160156 7.01195312 19.36648437 7 20 C6.34 20 5.68 20 5 20 C4.7525 18.96875 4.505 17.9375 4.25 16.875 C3.15920937 12.99399857 1.37066116 10.23990359 -1 7 C-1.66 7.66 -2.32 8.32 -3 9 C-3 7.35 -3 5.7 -3 4 C-2.34 4 -1.68 4 -1 4 C-0.67 2.68 -0.34 1.36 0 0 Z " fill="#A49AF8" transform="translate(283,140)"/>
<path d="M0 0 C5.41506894 6.161975 7.54645877 13.32615827 10 21 C9.01 21 8.02 21 7 21 C6.67 20.01 6.34 19.02 6 18 C5.34 18.66 4.68 19.32 4 20 C3.34 19.67 2.68 19.34 2 19 C2.03480469 17.62714844 2.03480469 17.62714844 2.0703125 16.2265625 C2.08835937 15.03804687 2.10640625 13.84953125 2.125 12.625 C2.15980469 10.84996094 2.15980469 10.84996094 2.1953125 9.0390625 C2.32866229 5.88846183 2.32866229 5.88846183 0 4 C0 2.68 0 1.36 0 0 Z " fill="#5C5ED8" transform="translate(284,128)"/>
<path d="M0 0 C0.66 0.33 1.32 0.66 2 1 C1.01 3.31 0.02 5.62 -1 8 C0.65 7.67 2.3 7.34 4 7 C4.33 5.02 4.66 3.04 5 1 C7.1385485 3.1385485 7.42655063 4.13275314 8 7 C7.34 7 6.68 7 6 7 C6 7.66 6 8.32 6 9 C4.41773035 9.19627391 2.83410729 9.38165538 1.25 9.5625 C0.36828125 9.66691406 -0.5134375 9.77132812 -1.421875 9.87890625 C-3.89847485 9.99523139 -5.63011798 9.61307818 -8 9 C-8.99 9.495 -8.99 9.495 -10 10 C-9.67 7.36 -9.34 4.72 -9 2 C-8.01 3.485 -8.01 3.485 -7 5 C-4.43717258 5.72965366 -4.43717258 5.72965366 -2 6 C-2.33 4.68 -2.66 3.36 -3 2 C-2.01 1.34 -1.02 0.68 0 0 Z " fill="#9B9FBA" transform="translate(224,203)"/>
<path d="M0 0 C0.33 0 0.66 0 1 0 C1.33 2.97 1.66 5.94 2 9 C2.99 8.67 3.98 8.34 5 8 C5.33 7.01 5.66 6.02 6 5 C6.0270043 6.45823212 6.04639787 7.91660675 6.0625 9.375 C6.07410156 10.18710938 6.08570313 10.99921875 6.09765625 11.8359375 C6 14 6 14 5 16 C4.01 16 3.02 16 2 16 C2 17.65 2 19.3 2 21 C1.34 21.33 0.68 21.66 0 22 C0 14.74 0 7.48 0 0 Z " fill="#BAC3E5" transform="translate(359,202)"/>
<path d="M0 0 C0.99 0.33 1.98 0.66 3 1 C2.67 1.66 2.34 2.32 2 3 C1.90264181 5.31082534 1.87022627 7.62462958 1.875 9.9375 C1.87242187 11.18402344 1.86984375 12.43054688 1.8671875 13.71484375 C1.84800569 17.00676297 1.84800569 17.00676297 3 20 C-0.3 20 -3.6 20 -7 20 C-6.505 18.515 -6.505 18.515 -6 17 C-5.67 17.33 -5.34 17.66 -5 18 C-4.67 16.35 -4.34 14.7 -4 13 C-3.01 13 -2.02 13 -1 13 C-0.67 8.71 -0.34 4.42 0 0 Z " fill="#9EADD5" transform="translate(365,205)"/>
<path d="M0 0 C0.33 0 0.66 0 1 0 C1.03758423 1.01368652 1.03758423 1.01368652 1.07592773 2.04785156 C1.19210742 5.1154168 1.31473437 8.18269158 1.4375 11.25 C1.47681641 12.31347656 1.51613281 13.37695312 1.55664062 14.47265625 C1.59853516 15.49746094 1.64042969 16.52226562 1.68359375 17.578125 C1.72025146 18.52075195 1.75690918 19.46337891 1.79467773 20.43457031 C1.95079003 23.26886213 1.95079003 23.26886213 3 27 C10.59 27 18.18 27 26 27 C26 27.33 26 27.66 26 28 C17.09 28 8.18 28 -1 28 C-0.67 18.76 -0.34 9.52 0 0 Z " fill="#8689AA" transform="translate(177,197)"/>
<path d="M0 0 C0.66 0.33 1.32 0.66 2 1 C2 1.66 2 2.32 2 3 C8.435 2.505 8.435 2.505 15 2 C15 2.66 15 3.32 15 4 C11.27569643 4.69289369 7.78916254 5.11144596 4 5 C4.99 5.99 5.98 6.98 7 8 C6.34 8 5.68 8 5 8 C5 8.66 5 9.32 5 10 C3.35 10.66 1.7 11.32 0 12 C-0.33 10.35 -0.66 8.7 -1 7 C-0.34 6.67 0.32 6.34 1 6 C0.67 5.67 0.34 5.34 0 5 C-0.04063832 3.33382885 -0.042721 1.66611905 0 0 Z M7 6 C9 7 9 7 9 7 Z " fill="#C9D0EB" transform="translate(416,202)"/>
<path d="M0 0 C7.59 0 15.18 0 23 0 C23 2.64 23 5.28 23 8 C16.73 8 10.46 8 4 8 C4 7.67 4 7.34 4 7 C4.96421875 6.98582031 5.9284375 6.97164062 6.921875 6.95703125 C8.18515625 6.90933594 9.4484375 6.86164063 10.75 6.8125 C12.00296875 6.77769531 13.2559375 6.74289063 14.546875 6.70703125 C18.67851334 6.24466306 18.67851334 6.24466306 22 1 C14.74 1 7.48 1 0 1 C0 0.67 0 0.34 0 0 Z " fill="#6A658C" transform="translate(417,193)"/>
<path d="M0 0 C4.875 4.75 4.875 4.75 6 7 C6.66 6.34 7.32 5.68 8 5 C10.5 7.25 10.5 7.25 13 10 C13 11.32 13 12.64 13 14 C12.39671875 13.65066406 11.7934375 13.30132812 11.171875 12.94140625 C10.37265625 12.48636719 9.5734375 12.03132812 8.75 11.5625 C7.96109375 11.11003906 7.1721875 10.65757812 6.359375 10.19140625 C4.21166532 9.10688398 2.34794939 8.46851284 0 8 C0 5.36 0 2.72 0 0 Z " fill="#CFA5FC" transform="translate(382,161)"/>
<path d="M0 0 C3.96216969 5.94325454 2.99294563 12.26324579 2 19 C1.67 19 1.34 19 1 19 C0.67 17.02 0.34 15.04 0 13 C-0.99 13.33 -1.98 13.66 -3 14 C-2.88570603 12.22844346 -2.75816963 10.45773771 -2.625 8.6875 C-2.55539063 7.70136719 -2.48578125 6.71523437 -2.4140625 5.69921875 C-2 3 -2 3 0 0 Z " fill="#242093" transform="translate(250,114)"/>
<path d="M0 0 C2.75992564 4.85177405 2.68988832 9.7408724 1.546875 15.140625 C1.08163776 16.7756016 0.54780999 18.39080815 0 20 C-1.32 20 -2.64 20 -4 20 C-2.9413873 13.24289769 -1.77874156 6.60675438 0 0 Z " fill="#C397F6" transform="translate(237,153)"/>
<path d="M0 0 C4.29 0.33 8.58 0.66 13 1 C13 1.66 13 2.32 13 3 C13.9075 2.690625 14.815 2.38125 15.75 2.0625 C16.8225 1.711875 17.895 1.36125 19 1 C19.7425 0.7525 20.485 0.505 21.25 0.25 C22.11625 0.12625 22.11625 0.12625 23 0 C23.66 0.66 24.32 1.32 25 2 C24.34 2 23.68 2 23 2 C23 2.66 23 3.32 23 4 C19.5647952 6.29013653 18.014669 6.17842973 14 6 C13.34 4.68 12.68 3.36 12 2 C8.04 2 4.08 2 0 2 C0 1.34 0 0.68 0 0 Z " fill="#7584B1" transform="translate(146,218)"/>
<path d="M0 0 C4.10958767 1.45044271 7.43258745 3.51110752 11 6 C10.67 6.66 10.34 7.32 10 8 C2.62957075 8.36248013 2.62957075 8.36248013 -0.0625 6.8125 C-1.38135516 4.26271335 -0.7975116 2.68253902 0 0 Z " fill="#DEE9FA" transform="translate(374,207)"/>
<path d="M0 0 C-0.99 1.485 -0.99 1.485 -2 3 C-1.34 3.33 -0.68 3.66 0 4 C0 4.66 0 5.32 0 6 C-0.66 6 -1.32 6 -2 6 C-2.66 7.32 -3.32 8.64 -4 10 C-4.33 9.34 -4.66 8.68 -5 8 C-5.66 8 -6.32 8 -7 8 C-7.33 5.69 -7.66 3.38 -8 1 C-5.29120665 -0.35439668 -2.99066732 -0.06501451 0 0 Z " fill="#EDECF2" transform="translate(365,194)"/>
<path d="M0 0 C1.65 0.33 3.3 0.66 5 1 C4 4 4 4 2 5 C2 5.33 2 5.66 2 6 C6.29 6 10.58 6 15 6 C10.12880928 9.24746048 4.70091184 8.47222439 -1 8 C-3.64986986 7.2570057 -5.58309122 6.34897234 -8 5 C-6 4 -6 4 -4 3.625 C-1.62014703 3.11133621 -1.62014703 3.11133621 0 0 Z " fill="#7F8AB8" transform="translate(330,218)"/>
<path d="M0 0 C0.99 0.33 1.98 0.66 3 1 C3.33 3.31 3.66 5.62 4 8 C10.44070471 8.10655578 16.62641289 7.96205088 23 7 C23 8.65 23 10.3 23 12 C22.67 11.01 22.34 10.02 22 9 C21.01 9 20.02 9 19 9 C19 9.66 19 10.32 19 11 C18.01 11.33 17.02 11.66 16 12 C15.67 11.67 15.34 11.34 15 11 C12.18443216 10.92769007 9.38207789 11.00376369 6.56640625 11.0625 C4 11 4 11 2 10 C1.71073053 7.97511372 1.42727846 5.94755984 1.24609375 3.91015625 C1.09593122 1.91747967 1.09593122 1.91747967 0 0 Z " fill="#C4D1EF" transform="translate(184,210)"/>
<path d="M0 0 C-0.33 2.64 -0.66 5.28 -1 8 C-1.99 8.33 -2.98 8.66 -4 9 C-4.66 8.67 -5.32 8.34 -6 8 C-6.33 9.32 -6.66 10.64 -7 12 C-8.34593209 4.53619475 -8.34593209 4.53619475 -6.75 2.0625 C-4.52291522 0.71034138 -2.61967411 0 0 0 Z " fill="#D7E3FB" transform="translate(326,207)"/>
<path d="M0 0 C0.99 0.33 1.98 0.66 3 1 C2.85691406 1.68449219 2.71382813 2.36898437 2.56640625 3.07421875 C1.93988262 6.31053736 1.43130921 9.55335919 0.9375 12.8125 C0.67259766 14.55466797 0.67259766 14.55466797 0.40234375 16.33203125 C0.26957031 17.21246094 0.13679688 18.09289062 0 19 C-0.66 18.67 -1.32 18.34 -2 18 C-2.3690205 5.33029613 -2.3690205 5.33029613 0 0 Z " fill="#92A4FB" transform="translate(284,113)"/>
<path d="M0 0 C9.9 0 19.8 0 30 0 C30 2.31 30 4.62 30 7 C26.7169902 8.6415049 23.57454967 7.51888624 20 7 C20 6.67 20 6.34 20 6 C22.64 5.67 25.28 5.34 28 5 C28.33 3.68 28.66 2.36 29 1 C24.54140138 1.13835803 20.08320214 1.28694579 15.625 1.4375 C13.71847656 1.49647461 13.71847656 1.49647461 11.7734375 1.55664062 C10.56171875 1.59853516 9.35 1.64042969 8.1015625 1.68359375 C6.42054443 1.73858032 6.42054443 1.73858032 4.70556641 1.79467773 C2.03287229 1.82596013 2.03287229 1.82596013 0 3 C0 2.01 0 1.02 0 0 Z " fill="#7D77C6" transform="translate(176,193)"/>
<path d="M0 0 C1.65 0 3.3 0 5 0 C5 1.32 5 2.64 5 4 C5.99 4.33 6.98 4.66 8 5 C8 5.66 8 6.32 8 7 C3.71 7 -0.58 7 -5 7 C-4.67 6.34 -4.34 5.68 -4 5 C-2.02 5.495 -2.02 5.495 0 6 C0 4.02 0 2.04 0 0 Z " fill="#95AFF5" transform="translate(257,218)"/>
<path d="M0 0 C1.32 0 2.64 0 4 0 C4.125 4.75 4.125 4.75 3 7 C3.33 7.99 3.66 8.98 4 10 C2.02 10 0.04 10 -2 10 C-1.85950482 8.52031676 -1.71245174 7.04125484 -1.5625 5.5625 C-1.48128906 4.73878906 -1.40007812 3.91507813 -1.31640625 3.06640625 C-1 1 -1 1 0 0 Z " fill="#ACBFF9" transform="translate(140,214)"/>
<path d="M0 0 C-0.59393382 1.29640378 -1.20057989 2.58698839 -1.8125 3.875 C-2.14894531 4.59429687 -2.48539063 5.31359375 -2.83203125 6.0546875 C-4 8 -4 8 -7 10 C-7.99 9.67 -8.98 9.34 -10 9 C-8.68 7.35 -7.36 5.7 -6 4 C-8.64 3.67 -11.28 3.34 -14 3 C-14 2.67 -14 2.34 -14 2 C-9.07262981 0.02905192 -5.21979128 -0.1799928 0 0 Z " fill="#C6CBFD" transform="translate(192,182)"/>
<path d="M0 0 C0 3.63 0 7.26 0 11 C-2 8 -2 8 -3 5 C-4.65 4.67 -6.3 4.34 -8 4 C-8 2.68 -8 1.36 -8 0 C-4.71303767 -0.79953138 -3.28976808 -1.09658936 0 0 Z " fill="#B1C4FC" transform="translate(129,212)"/>
<path d="M0 0 C0 0.99 0 1.98 0 3 C-0.66 3 -1.32 3 -2 3 C-2 4.65 -2 6.3 -2 8 C-2.928125 8.12375 -2.928125 8.12375 -3.875 8.25 C-6.18437567 8.81258459 -6.18437567 8.81258459 -7.25 11.0625 C-7.4975 11.701875 -7.745 12.34125 -8 13 C-9 11 -9 11 -8.25 7.5625 C-6.76481636 3.32972663 -4.9104282 0 0 0 Z " fill="#867CF7" transform="translate(248,134)"/>
<path d="M0 0 C2.39286884 2.39286884 2.32050616 3.09447094 2.375 6.375 C2.30946237 9.76657221 2.19088515 10.73912363 0.125 13.5625 C-2 15 -2 15 -4 15 C-3.67 11.7 -3.34 8.4 -3 5 C-2.01 4.67 -1.02 4.34 0 4 C0 2.68 0 1.36 0 0 Z " fill="#E4EDFC" transform="translate(390,200)"/>
<path d="M0 0 C0 0.66 0 1.32 0 2 C-2.34852528 3.17426264 -3.73774065 3.11508173 -6.3515625 3.09765625 C-7.20234375 3.09443359 -8.053125 3.09121094 -8.9296875 3.08789062 C-9.81914062 3.07951172 -10.70859375 3.07113281 -11.625 3.0625 C-12.5221875 3.05798828 -13.419375 3.05347656 -14.34375 3.04882812 C-16.56256648 3.03702591 -18.78125018 3.02056155 -21 3 C-21 2.34 -21 1.68 -21 1 C-18.43761495 0.83138242 -15.87511576 0.66504227 -13.3125 0.5 C-12.59126953 0.45230469 -11.87003906 0.40460938 -11.12695312 0.35546875 C-7.41171286 0.11796481 -3.72305126 -0.05874637 0 0 Z " fill="#A6AED4" transform="translate(491,223)"/>
<path d="M0 0 C0.66 0.66 1.32 1.32 2 2 C2.99 1.67 3.98 1.34 5 1 C6 2 6 2 6.0625 5.0625 C6.041875 6.031875 6.02125 7.00125 6 8 C4.02 8.66 2.04 9.32 0 10 C-0.19412181 8.52168779 -0.38012131 7.04230684 -0.5625 5.5625 C-0.66691406 4.73878906 -0.77132813 3.91507813 -0.87890625 3.06640625 C-0.91886719 2.38449219 -0.95882813 1.70257813 -1 1 C-0.67 0.67 -0.34 0.34 0 0 Z " fill="#C0D2F9" transform="translate(435,211)"/>
<path d="M0 0 C1.23723976 2.47447952 1 4.2553349 1 7 C1.33 7.99 1.66 8.98 2 10 C2 10.99 2 11.98 2 13 C1.01 13.33 0.02 13.66 -1 14 C-1 13.34 -1 12.68 -1 12 C-1.99 12.33 -2.98 12.66 -4 13 C-3.50269348 8.02693484 -2.44697666 4.36200187 0 0 Z " fill="#D8D9E8" transform="translate(220,196)"/>
<path d="M0 0 C1.98 0.99 1.98 0.99 4 2 C3.67 4.31 3.34 6.62 3 9 C4.65 9.33 6.3 9.66 8 10 C8 10.66 8 11.32 8 12 C4.77208445 14.1519437 3.71599191 14.20086443 0 14 C0.08378906 13.24074219 0.16757812 12.48148438 0.25390625 11.69921875 C0.35574219 10.70535156 0.45757812 9.71148437 0.5625 8.6875 C0.66691406 7.70136719 0.77132813 6.71523437 0.87890625 5.69921875 C1.16602527 2.90069653 1.16602527 2.90069653 0 0 Z " fill="#BEA5FD" transform="translate(289,175)"/>
<path d="M0 0 C1.32 0.33 2.64 0.66 4 1 C4.38218767 2.65614657 4.71395102 4.32457024 5 6 C4 7 4 7 1.93359375 7.09765625 C1.10988281 7.08605469 0.28617187 7.07445312 -0.5625 7.0625 C-1.38878906 7.05347656 -2.21507812 7.04445312 -3.06640625 7.03515625 C-3.70449219 7.02355469 -4.34257812 7.01195312 -5 7 C-5 6.34 -5 5.68 -5 5 C-2 3 -2 3 1 3 C0.67 2.01 0.34 1.02 0 0 Z " fill="#B4A3FA" transform="translate(310,174)"/>
<path d="M0 0 C0.33 0 0.66 0 1 0 C1.77253219 8.84120172 1.77253219 8.84120172 -1.125 13.1875 C-4 15 -4 15 -7.3125 14.8125 C-8.199375 14.544375 -9.08625 14.27625 -10 14 C-8 11 -8 11 -4.875 10.3125 C-3.451875 10.1578125 -3.451875 10.1578125 -2 10 C-1.34 6.7 -0.68 3.4 0 0 Z " fill="#9BA8D1" transform="translate(441,210)"/>
<path d="M0 0 C0.66 0.33 1.32 0.66 2 1 C1 2.66666667 0 4.33333333 -1 6 C-1.45375 6.9075 -1.9075 7.815 -2.375 8.75 C-4 11 -4 11 -6.6875 11.8125 C-7.450625 11.874375 -8.21375 11.93625 -9 12 C-8.34 10.68 -7.68 9.36 -7 8 C-6.34 8 -5.68 8 -5 8 C-4.5978125 6.2984375 -4.5978125 6.2984375 -4.1875 4.5625 C-3.795625 3.386875 -3.40375 2.21125 -3 1 C-2.01 0.67 -1.02 0.34 0 0 Z " fill="#BFB2FB" transform="translate(241,179)"/>
<path d="M0 0 C0.66 0 1.32 0 2 0 C1.56826496 6.15222436 0.34594658 9.81917949 -3 15 C-4.125 13.3125 -4.125 13.3125 -5 11 C-4.3125 8.625 -4.3125 8.625 -3 6 C-2.46375 4.906875 -1.9275 3.81375 -1.375 2.6875 C-0.694375 1.3571875 -0.694375 1.3571875 0 0 Z " fill="#887BE0" transform="translate(214,142)"/>
<path d="M0 0 C0.33 0 0.66 0 1 0 C1 2.64 1 5.28 1 8 C-1.31 8 -3.62 8 -6 8 C-6.33 9.32 -6.66 10.64 -7 12 C-7 9.69 -7 7.38 -7 5 C-6.21625 4.731875 -5.4325 4.46375 -4.625 4.1875 C-1.71885077 3.15185568 -1.71885077 3.15185568 0 0 Z " fill="#CDDCFC" transform="translate(127,204)"/>
<path d="M0 0 C1.1446875 0.2475 1.1446875 0.2475 2.3125 0.5 C5.03596236 1.09145396 5.03596236 1.09145396 8 1 C7.67 1.99 7.34 2.98 7 4 C4.9375 4.6875 4.9375 4.6875 3 5 C2.87625 6.134375 2.7525 7.26875 2.625 8.4375 C2.41875 9.613125 2.2125 10.78875 2 12 C1.01 12.495 1.01 12.495 0 13 C-0.19466332 11.20909747 -0.38051213 9.41723495 -0.5625 7.625 C-0.66691406 6.62726563 -0.77132812 5.62953125 -0.87890625 4.6015625 C-1 2 -1 2 0 0 Z " fill="#F1F5FD" transform="translate(164,201)"/>
<path d="M0 0 C2.97 0 5.94 0 9 0 C8.01 0.33 7.02 0.66 6 1 C5.26676204 3.01508358 5.26676204 3.01508358 5 5 C4.67 4.67 4.34 4.34 4 4 C3.67 9.28 3.34 14.56 3 20 C2.34 20 1.68 20 1 20 C1.01160156 18.80761719 1.02320313 17.61523438 1.03515625 16.38671875 C1.04453592 14.82031406 1.05363593 13.25390769 1.0625 11.6875 C1.07087891 10.90181641 1.07925781 10.11613281 1.08789062 9.30664062 C1.09111328 8.54931641 1.09433594 7.79199219 1.09765625 7.01171875 C1.10289307 6.31522217 1.10812988 5.61872559 1.11352539 4.90112305 C1.06895991 2.77502032 1.06895991 2.77502032 0 0 Z " fill="#8986A1" transform="translate(383,193)"/>
<path d="M0 0 C0.33 0 0.66 0 1 0 C1.66 4.29 2.32 8.58 3 13 C3.66 12.34 4.32 11.68 5 11 C5 11.99 5 12.98 5 14 C5.99 14 6.98 14 8 14 C8.66 15.65 9.32 17.3 10 19 C3.33712984 17.07517084 3.33712984 17.07517084 1 14 C-0.04976964 10.85069107 -0.10131595 8.61185544 -0.0625 5.3125 C-0.05347656 4.31863281 -0.04445313 3.32476562 -0.03515625 2.30078125 C-0.02355469 1.54152344 -0.01195312 0.78226563 0 0 Z " fill="#A2A8C4" transform="translate(316,204)"/>
<path d="M0 0 C1.33855056 0.78281305 2.67073644 1.57651877 4 2.375 C5.11375 3.03628906 5.11375 3.03628906 6.25 3.7109375 C6.8275 4.13632813 7.405 4.56171875 8 5 C8 5.66 8 6.32 8 7 C6.37399059 6.9129995 4.74910322 6.8048219 3.125 6.6875 C2.22007812 6.62949219 1.31515625 6.57148438 0.3828125 6.51171875 C-2 6 -2 6 -4 3 C-2.68 3.33 -1.36 3.66 0 4 C0 2.68 0 1.36 0 0 Z " fill="#D7CDFD" transform="translate(384,170)"/>
<path d="M0 0 C0.33 0 0.66 0 1 0 C1 2.31 1 4.62 1 7 C1.99 6.67 2.98 6.34 4 6 C4 6.66 4 7.32 4 8 C-0.29 8 -4.58 8 -9 8 C-8.67 7.34 -8.34 6.68 -8 6 C-7.01 6.33 -6.02 6.66 -5 7 C-5 5.35 -5 3.7 -5 2 C-4.01 2 -3.02 2 -2 2 C-2 2.99 -2 3.98 -2 5 C-1.34 3.35 -0.68 1.7 0 0 Z " fill="#A1AEDC" transform="translate(310,217)"/>
<path d="M0 0 C0.66 0.66 1.32 1.32 2 2 C1.64700993 5.44165321 0.95418308 7.06872538 -1 10 C-2.32 9.67 -3.64 9.34 -5 9 C-4.38722388 6.03824877 -3.74627478 4.61941217 -2 2 C-1.34 2 -0.68 2 0 2 C0 1.34 0 0.68 0 0 Z " fill="#BEC4FD" transform="translate(200,171)"/>
<path d="M0 0 C0 2.64 0 5.28 0 8 C-0.33 6.68 -0.66 5.36 -1 4 C-2.65 4 -4.3 4 -6 4 C-6 5.65 -6 7.3 -6 9 C-6.66 9 -7.32 9 -8 9 C-7.67 6.36 -7.34 3.72 -7 1 C-4.50935112 0.31292445 -2.62113708 0 0 0 Z " fill="#B3C4F4" transform="translate(263,214)"/>
<path d="M0 0 C1.485 0.99 1.485 0.99 3 2 C3.3148325 6.17153059 2.98386923 9.94153944 2 14 C-0.46469381 11.53530619 -0.38543894 10.4068526 -0.6875 7 C-0.77386719 6.113125 -0.86023438 5.22625 -0.94921875 4.3125 C-1 2 -1 2 0 0 Z " fill="#8086FA" transform="translate(284,132)"/>
<path d="M0 0 C2.97 0 5.94 0 9 0 C7.68 0.33 6.36 0.66 5 1 C5 1.66 5 2.32 5 3 C6.98 3.66 8.96 4.32 11 5 C11 5.33 11 5.66 11 6 C6.62065881 5.48041715 2.31196609 4.94324258 -2 4 C-1.34 2.68 -0.68 1.36 0 0 Z " fill="#BDAFFC" transform="translate(169,185)"/>
<path d="M0 0 C0.33 0.66 0.66 1.32 1 2 C1.99 1.67 2.98 1.34 4 1 C7.57142857 8.28571429 7.57142857 8.28571429 6 13 C1.4070292 9.47872239 0.88058083 5.42252403 0 0 Z " fill="#D0BFFC" transform="translate(372,159)"/>
<path d="M0 0 C5.28497409 0.1761658 5.28497409 0.1761658 8 1 C10.5 4.0625 10.5 4.0625 12 7 C11.67 7.66 11.34 8.32 11 9 C7.26790586 7.75596862 5.69291525 5.82756102 3 3 C2.401875 2.401875 1.80375 1.80375 1.1875 1.1875 C0.795625 0.795625 0.40375 0.40375 0 0 Z " fill="#B7A6FA" transform="translate(384,176)"/>
<path d="M0 0 C0.66 0.33 1.32 0.66 2 1 C2.02693575 3.12493141 2.04636628 5.24995912 2.0625 7.375 C2.07410156 8.55835938 2.08570313 9.74171875 2.09765625 10.9609375 C2 14 2 14 1 16 C0.34 16 -0.32 16 -1 16 C-2.49697302 10.31150252 -1.3348044 5.58190932 0 0 Z " fill="#FEF0FD" transform="translate(240,159)"/>
<path d="M0 0 C0.33 0 0.66 0 1 0 C1.66 3.96 2.32 7.92 3 12 C-1.29 12 -5.58 12 -10 12 C-9.67 11.34 -9.34 10.68 -9 10 C-6.03 10.33 -3.06 10.66 0 11 C-0.185625 9.9275 -0.37125 8.855 -0.5625 7.75 C-0.9304568 4.59608454 -1.04465343 2.90181508 0 0 Z " fill="#8E93BF" transform="translate(288,213)"/>
<path d="M0 0 C2.31 0.33 4.62 0.66 7 1 C7.66 3.64 8.32 6.28 9 9 C6 8 6 8 4 5 C3.34 5 2.68 5 2 5 C1.34 4.34 0.68 3.68 0 3 C0 2.01 0 1.02 0 0 Z " fill="#AA8AFA" transform="translate(297,161)"/>
<path d="M0 0 C0.99 0 1.98 0 3 0 C3 2.31 3 4.62 3 7 C3.66 7.33 4.32 7.66 5 8 C4.01 8.99 3.02 9.98 2 11 C0.875 7.25 0.875 7.25 2 5 C0.02 5.33 -1.96 5.66 -4 6 C-3.34 4.68 -2.68 3.36 -2 2 C-1.34 2 -0.68 2 0 2 C0 1.34 0 0.68 0 0 Z " fill="#493BD1" transform="translate(248,126)"/>
<path d="M0 0 C2.48862878 3.23521742 4.75421558 6.59260295 7 10 C6 12 6 12 3 14 C2.49307308 12.4188708 1.99473557 10.83498617 1.5 9.25 C1.2215625 8.36828125 0.943125 7.4865625 0.65625 6.578125 C0 4 0 4 0 0 Z " fill="#E1DDFD" transform="translate(281,145)"/>
<path d="M0 0 C0.99 0.33 1.98 0.66 3 1 C4.1875 4.0625 4.1875 4.0625 5 7 C1.7 6.67 -1.6 6.34 -5 6 C-2 4 -2 4 0 4 C0 2.68 0 1.36 0 0 Z " fill="#8A91B6" transform="translate(244,219)"/>
<path d="M0 0 C2.46800047 1.15173355 4.04783565 2.04783565 6 4 C6 4.99 6 5.98 6 7 C4.35 7.33 2.7 7.66 1 8 C0.40267181 5.23735711 0 2.83967231 0 0 Z " fill="#A7BCF5" transform="translate(238,216)"/>
<path d="M0 0 C0.33 0 0.66 0 1 0 C1 5.94 1 11.88 1 18 C1.66 18 2.32 18 3 18 C3.66 19.65 4.32 21.3 5 23 C4.01 23 3.02 23 2 23 C0.27793812 20.00873681 -0.24179923 17.89314287 -0.1953125 14.453125 C-0.18886719 13.60878906 -0.18242187 12.76445312 -0.17578125 11.89453125 C-0.15902344 11.02183594 -0.14226562 10.14914063 -0.125 9.25 C-0.11597656 8.36183594 -0.10695313 7.47367188 -0.09765625 6.55859375 C-0.07414577 4.37211942 -0.04128499 2.18619906 0 0 Z " fill="#9294B0" transform="translate(461,200)"/>
<path d="M0 0 C0 1.65 0 3.3 0 5 C-3.3 4.67 -6.6 4.34 -10 4 C-10.33 3.01 -10.66 2.02 -11 1 C-9.54182203 0.83197949 -8.0834516 0.66562857 -6.625 0.5 C-5.81289062 0.4071875 -5.00078125 0.314375 -4.1640625 0.21875 C-2 0 -2 0 0 0 Z " fill="#EEF2FB" transform="translate(204,205)"/>
<path d="M0 0 C2.97 0 5.94 0 9 0 C9 2.64 9 5.28 9 8 C6.03 8 3.06 8 0 8 C0 7.67 0 7.34 0 7 C1.98 6.67 3.96 6.34 6 6 C6 4.68 6 3.36 6 2 C3.03 1.505 3.03 1.505 0 1 C0 0.67 0 0.34 0 0 Z " fill="#979EC2" transform="translate(447,218)"/>
<path d="M0 0 C0.33 0 0.66 0 1 0 C1 3.63 1 7.26 1 11 C0.01 11.495 0.01 11.495 -1 12 C-1.99 10.68 -2.98 9.36 -4 8 C-2.66666667 5.33333333 -1.33333333 2.66666667 0 0 Z " fill="#BCD1F8" transform="translate(390,212)"/>
<path d="M0 0 C1.65 0 3.3 0 5 0 C5 1.98 5 3.96 5 6 C2.525 5.01 2.525 5.01 0 4 C-0.33 5.98 -0.66 7.96 -1 10 C-2.46726798 6.18510326 -1.43336419 3.70988378 0 0 Z " fill="#C9DAFD" transform="translate(180,212)"/>
<path d="M0 0 C0.99 0.33 1.98 0.66 3 1 C2.35546875 1.45890625 1.7109375 1.9178125 1.046875 2.390625 C-1.99919291 6.27378028 -1.67187504 9.94176379 -1.75 14.75 C-1.77964844 15.63816406 -1.80929687 16.52632812 -1.83984375 17.44140625 C-1.91036918 19.62769449 -1.96314637 21.81292768 -2 24 C-2.33 24 -2.66 24 -3 24 C-3.08728882 20.75017 -3.14048658 17.5006425 -3.1875 14.25 C-3.21263672 13.32960937 -3.23777344 12.40921875 -3.26367188 11.4609375 C-3.27333984 10.57148438 -3.28300781 9.68203125 -3.29296875 8.765625 C-3.3086792 7.94868164 -3.32438965 7.13173828 -3.34057617 6.29003906 C-2.92379459 3.48759373 -1.83804852 2.11152979 0 0 Z " fill="#BAB8DC" transform="translate(410,196)"/>
<path d="M0 0 C-1.50223584 4.20626034 -4.28550034 5.73900021 -8 8 C-8 7.01 -8 6.02 -8 5 C-8.66 4.34 -9.32 3.68 -10 3 C-3.375 0 -3.375 0 0 0 Z " fill="#9390B7" transform="translate(140,182)"/>
<path d="M0 0 C-0.639375 0.28875 -1.27875 0.5775 -1.9375 0.875 C-4.15206079 1.82823451 -4.15206079 1.82823451 -5 4 C-7.97 4 -10.94 4 -14 4 C-14 3.34 -14 2.68 -14 2 C-9.15758367 0.66416101 -5.06562383 -0.25328119 0 0 Z " fill="#C3D8FC" transform="translate(199,220)"/>
<path d="M0 0 C0.33 0 0.66 0 1 0 C1.33 5.61 1.66 11.22 2 17 C-0.32888606 13.50667091 -0.50146441 11.13072349 -1 7 C-1.226875 6.071875 -1.45375 5.14375 -1.6875 4.1875 C-1.790625 3.465625 -1.89375 2.74375 -2 2 C-1.34 1.34 -0.68 0.68 0 0 Z " fill="#E0B2FE" transform="translate(246,142)"/>
<path d="M0 0 C2.97 0 5.94 0 9 0 C8.67 1.32 8.34 2.64 8 4 C8.33 4.66 8.66 5.32 9 6 C5.32579134 5.69381595 4.21864487 5.24228216 1.6875 2.4375 C1.130625 1.633125 0.57375 0.82875 0 0 Z " fill="#AFB6D3" transform="translate(374,214)"/>
<path d="M0 0 C0.33 0 0.66 0 1 0 C1 2.64 1 5.28 1 8 C-0.98 8 -2.96 8 -5 8 C-5 7.34 -5 6.68 -5 6 C-5.66 6 -6.32 6 -7 6 C-7 5.01 -7 4.02 -7 3 C-4.03 3.495 -4.03 3.495 -1 4 C-0.67 2.68 -0.34 1.36 0 0 Z " fill="#B2BCE0" transform="translate(470,207)"/>
<path d="M0 0 C0.66 0.99 1.32 1.98 2 3 C5.06556598 3.73343428 5.06556598 3.73343428 8 4 C8 4.33 8 4.66 8 5 C1.565 5.495 1.565 5.495 -5 6 C-4.34 5.67 -3.68 5.34 -3 5 C-2.67 4.01 -2.34 3.02 -2 2 C-1.34 1.34 -0.68 0.68 0 0 Z M2 2 C4 3 4 3 4 3 Z " fill="#9A9FB0" transform="translate(208,220)"/>
<path d="M0 0 C-0.1875 2.875 -0.1875 2.875 -1 6 C-3.5625 7.375 -3.5625 7.375 -6 8 C-5.62403791 5.21788056 -5.32681541 3.4120716 -3.5625 1.1875 C-2 0 -2 0 0 0 Z " fill="#C7BBF1" transform="translate(210,153)"/>
<path d="M0 0 C1.8125 0.1875 1.8125 0.1875 4 1 C5.75 3.5625 5.75 3.5625 7 6 C6.01 7.32 5.02 8.64 4 10 C3.32845067 8.71086513 2.66291141 7.41859796 2 6.125 C1.62875 5.40570313 1.2575 4.68640625 0.875 3.9453125 C0 2 0 2 0 0 Z " fill="#AE9CEE" transform="translate(365,143)"/>
<path d="M0 0 C3 4 3 4 2.85546875 6.796875 C2.63503906 7.77140625 2.41460937 8.7459375 2.1875 9.75 C1.97480469 10.73484375 1.76210937 11.7196875 1.54296875 12.734375 C1.36378906 13.48203125 1.18460938 14.2296875 1 15 C1.66 15.33 2.32 15.66 3 16 C1.68 15.67 0.36 15.34 -1 15 C-0.67 10.05 -0.34 5.1 0 0 Z " fill="#E6ECFD" transform="translate(254,208)"/>
<path d="M0 0 C0.33 0.66 0.66 1.32 1 2 C1.66 2.33 2.32 2.66 3 3 C1.25181409 3.22304441 -0.49870323 3.4278645 -2.25 3.625 C-3.22453125 3.74101562 -4.1990625 3.85703125 -5.203125 3.9765625 C-8.13429393 4.00112537 -9.54528964 3.5312717 -12 2 C-12 1.67 -12 1.34 -12 1 C-10.95199219 1.01740234 -10.95199219 1.01740234 -9.8828125 1.03515625 C-8.97273438 1.04417969 -8.06265625 1.05320313 -7.125 1.0625 C-5.76761719 1.07990234 -5.76761719 1.07990234 -4.3828125 1.09765625 C-1.9831415 1.16249257 -1.9831415 1.16249257 0 0 Z " fill="#E5EAFD" transform="translate(431,205)"/>
<path d="M0 0 C0.99 0.33 1.98 0.66 3 1 C3 1.66 3 2.32 3 3 C2.34 3 1.68 3 1 3 C0.71125 3.5775 0.4225 4.155 0.125 4.75 C-0.91666667 6.83333333 -1.95833333 8.91666667 -3 11 C-3.36923077 3.49230769 -3.36923077 3.49230769 -1.5 1 C-1.005 0.67 -0.51 0.34 0 0 Z " fill="#F5F7FE" transform="translate(363,201)"/>
<path d="M0 0 C0.66 1.32 1.32 2.64 2 4 C2.556875 4.86625 3.11375 5.7325 3.6875 6.625 C4.120625 7.40875 4.55375 8.1925 5 9 C4.67 9.66 4.34 10.32 4 11 C2.68 10.34 1.36 9.68 0 9 C0 6.03 0 3.06 0 0 Z M1 10 C1.33 10.66 1.66 11.32 2 12 C1.01 11.67 0.02 11.34 -1 11 C-0.34 10.67 0.32 10.34 1 10 Z " fill="#BBBDD4" transform="translate(235,196)"/>
<path d="M0 0 C2.0625 0.4375 2.0625 0.4375 4 1 C4 2.32 4 3.64 4 5 C1.69 5 -0.62 5 -3 5 C-1.125 1.125 -1.125 1.125 0 0 Z " fill="#A4B6ED" transform="translate(333,220)"/>
<path d="M0 0 C0.99 0.66 1.98 1.32 3 2 C2.67 2.66 2.34 3.32 2 4 C-4.42857143 5.28571429 -4.42857143 5.28571429 -7 4 C-7 3.34 -7 2.68 -7 2 C-3.6875 0.875 -3.6875 0.875 0 0 Z " fill="#9FB3E4" transform="translate(170,215)"/>
<path d="M0 0 C1.98 0 3.96 0 6 0 C5.67 1.32 5.34 2.64 5 4 C2.69 4.33 0.38 4.66 -2 5 C-1.34 3.35 -0.68 1.7 0 0 Z " fill="#CEDFFB" transform="translate(349,210)"/>
<path d="M0 0 C0.33 0 0.66 0 1 0 C1.1875 2.375 1.1875 2.375 1 5 C0.01 5.66 -0.98 6.32 -2 7 C-2.66 7.99 -3.32 8.98 -4 10 C-4.625 7.6875 -4.625 7.6875 -5 5 C-4.34 4.01 -3.68 3.02 -3 2 C-2.34 2 -1.68 2 -1 2 C-0.67 1.34 -0.34 0.68 0 0 Z " fill="#D9E3F9" transform="translate(239,207)"/>
<path d="M0 0 C0.33 0.99 0.66 1.98 1 3 C0.01 4.485 0.01 4.485 -1 6 C-2.32 6 -3.64 6 -5 6 C-5.66 7.32 -6.32 8.64 -7 10 C-7 7.37886292 -6.68707555 5.49064888 -6 3 C-5.195625 2.87625 -4.39125 2.7525 -3.5625 2.625 C-2.716875 2.41875 -1.87125 2.2125 -1 2 C-0.67 1.34 -0.34 0.68 0 0 Z " fill="#D6E5F9" transform="translate(172,206)"/>
<path d="M0 0 C0.66 0 1.32 0 2 0 C2.33 0.99 2.66 1.98 3 3 C2.38125 3.2475 1.7625 3.495 1.125 3.75 C-1.35068687 5.20628639 -1.95125002 6.37812506 -3 9 C-3.33 9 -3.66 9 -4 9 C-4 7.02 -4 5.04 -4 3 C-3.01 3 -2.02 3 -1 3 C-0.67 2.01 -0.34 1.02 0 0 Z " fill="#7E87C6" transform="translate(123,227)"/>
<path d="M0 0 C0.99 0.33 1.98 0.66 3 1 C1.515 3.475 1.515 3.475 0 6 C-1.98 5.34 -3.96 4.68 -6 4 C-5.67 3.34 -5.34 2.68 -5 2 C-3.35 2 -1.7 2 0 2 C0 1.34 0 0.68 0 0 Z " fill="#C3CEEC" transform="translate(230,210)"/>
<path d="M0 0 C1 3 1 3 0 6 C-1.65 6.33 -3.3 6.66 -5 7 C-4.75 4.625 -4.75 4.625 -4 2 C-1.9375 0.6875 -1.9375 0.6875 0 0 Z " fill="#CDDAFB" transform="translate(144,208)"/>
<path d="M0 0 C0.33 0.66 0.66 1.32 1 2 C1.99 2.33 2.98 2.66 4 3 C4.6875 5.0625 4.6875 5.0625 5 7 C3.5459375 7.433125 3.5459375 7.433125 2.0625 7.875 C-1.10664203 8.64214682 -1.10664203 8.64214682 -2 11 C-2 10.01 -2 9.02 -2 8 C-1.34 8 -0.68 8 0 8 C1.09658936 4.71023192 0.79953138 3.28696233 0 0 Z " fill="#C3B0F8" transform="translate(306,170)"/>
<path d="M0 0 C0.99 0.495 0.99 0.495 2 1 C2 1.66 2 2.32 2 3 C2.66 3 3.32 3 4 3 C4 3.99 4 4.98 4 6 C3.34 6 2.68 6 2 6 C2 9.3 2 12.6 2 16 C1.67 16 1.34 16 1 16 C0.67 10.72 0.34 5.44 0 0 Z " fill="#7F79F1" transform="translate(289,146)"/>
<path d="M0 0 C1.00496852 3.01490557 1.10335303 5.04181692 1.0625 8.1875 C1.05347656 9.08855469 1.04445312 9.98960937 1.03515625 10.91796875 C1.02355469 11.60503906 1.01195312 12.29210937 1 13 C0.67 13 0.34 13 0 13 C-0.103125 12.0925 -0.20625 11.185 -0.3125 10.25 C-1.01230104 6.94184965 -1.90234102 5.5536718 -4 3 C-4 2.34 -4 1.68 -4 1 C-2 0 -2 0 0 0 Z " fill="#DAACF8" transform="translate(242,150)"/>
<path d="M0 0 C1.9375 0.1875 1.9375 0.1875 4 1 C5.25 3.0625 5.25 3.0625 6 5 C4.02 5 2.04 5 0 5 C-0.5625 3.0625 -0.5625 3.0625 -1 1 C-0.67 0.67 -0.34 0.34 0 0 Z " fill="#C3D9F6" transform="translate(210,219)"/>
<path d="M0 0 C0.33 0 0.66 0 1 0 C1 2.64 1 5.28 1 8 C-0.65 8.66 -2.3 9.32 -4 10 C-3.52219697 8.70782829 -3.04270894 7.41627954 -2.5625 6.125 C-2.29566406 5.40570313 -2.02882812 4.68640625 -1.75390625 3.9453125 C-1 2 -1 2 0 0 Z " fill="#CCB5FB" transform="translate(233,174)"/>
<path d="M0 0 C0.33 0.99 0.66 1.98 1 3 C1.99 2.67 2.98 2.34 4 2 C4.33 2.99 4.66 3.98 5 5 C1.49064814 5 -1.56484998 4.62457273 -5 4 C-4.67 3.34 -4.34 2.68 -4 2 C-3.01 2.33 -2.02 2.66 -1 3 C-0.67 2.01 -0.34 1.02 0 0 Z " fill="#CFA7FA" transform="translate(298,163)"/>
<path d="M0 0 C2.375 -0.1875 2.375 -0.1875 5 0 C5.66 0.99 6.32 1.98 7 3 C5.02 3 3.04 3 1 3 C0.67 4.32 0.34 5.64 0 7 C-1.32 6.67 -2.64 6.34 -4 6 C-3.01 5.67 -2.02 5.34 -1 5 C-0.67 3.35 -0.34 1.7 0 0 Z " fill="#9071F9" transform="translate(297,159)"/>
<path d="M0 0 C1.9375 0.8125 1.9375 0.8125 4 2 C4.33 2.99 4.66 3.98 5 5 C2 6 2 6 -1 6 C-0.67 4.02 -0.34 2.04 0 0 Z " fill="#CDBCF5" transform="translate(371,149)"/>
<path d="M0 0 C0.99 0.33 1.98 0.66 3 1 C2.7834375 2.0209375 2.7834375 2.0209375 2.5625 3.0625 C1.93054091 6.36273082 1.45686059 9.67144426 1 13 C0.67 13 0.34 13 0 13 C-0.19658808 11.58456585 -0.38187546 10.16755969 -0.5625 8.75 C-0.66691406 7.96109375 -0.77132813 7.1721875 -0.87890625 6.359375 C-1.00027349 3.99467126 -0.69633257 2.2488963 0 0 Z " fill="#6F7AF0" transform="translate(284,113)"/>
<path d="M0 0 C0.91058531 3.07322544 1.08886184 5.80097361 1 9 C-0.65 9 -2.3 9 -4 9 C-3.625 6.5625 -3.625 6.5625 -3 4 C-2.34 3.67 -1.68 3.34 -1 3 C-0.67 2.01 -0.34 1.02 0 0 Z " fill="#A5BDF6" transform="translate(287,213)"/>
<path d="M0 0 C0.99 0 1.98 0 3 0 C3 2.64 3 5.28 3 8 C0.69 7.67 -1.62 7.34 -4 7 C-4 6.34 -4 5.68 -4 5 C-2.35 5 -0.7 5 1 5 C1.33 3.68 1.66 2.36 2 1 C1.34 0.67 0.68 0.34 0 0 Z " fill="#C3C8DD" transform="translate(202,204)"/>
<path d="M0 0 C3.73487777 0.4979837 5.81237635 0.87491756 9 3 C8.67 3.99 8.34 4.98 8 6 C7.34 6 6.68 6 6 6 C6 5.01 6 4.02 6 3 C3.03 2.505 3.03 2.505 0 2 C0 1.34 0 0.68 0 0 Z " fill="#B6BAD3" transform="translate(432,205)"/>
<path d="M0 0 C0 0.99 0 1.98 0 3 C1.65 3.33 3.3 3.66 5 4 C4.67 4.99 4.34 5.98 4 7 C1.03 6.01 -1.94 5.02 -5 4 C-4.67 3.01 -4.34 2.02 -4 1 C-1.9375 0.3125 -1.9375 0.3125 0 0 Z " fill="#E4E0FE" transform="translate(178,185)"/>
<path d="M0 0 C3.43198603 1.23932829 6.30325632 2.50301511 9 5 C9 5.99 9 6.98 9 8 C7 8 7 8 5.625 6.6875 C5.08875 6.130625 4.5525 5.57375 4 5 C3.278125 4.484375 2.55625 3.96875 1.8125 3.4375 C1.214375 2.963125 0.61625 2.48875 0 2 C0 1.34 0 0.68 0 0 Z " fill="#DCB5EF" transform="translate(292,172)"/>
<path d="M0 0 C4.29 0 8.58 0 13 0 C13 0.99 13 1.98 13 3 C8.71 2.34 4.42 1.68 0 1 C0 0.67 0 0.34 0 0 Z " fill="#C7D1FB" transform="translate(473,219)"/>
<path d="M0 0 C2.64 0.66 5.28 1.32 8 2 C8 3.32 8 4.64 8 6 C4.08597051 4.73058503 2.20927127 3.48832306 0 0 Z " fill="#B7B6E0" transform="translate(385,224)"/>
<path d="M0 0 C0 0.66 0 1.32 0 2 C-4.47058824 6 -4.47058824 6 -7 6 C-7 5.34 -7 4.68 -7 4 C-7.66 3.67 -8.32 3.34 -9 3 C-3.375 0 -3.375 0 0 0 Z " fill="#7D8DC3" transform="translate(353,218)"/>
<path d="M0 0 C0 1.65 0 3.3 0 5 C-0.33 4.01 -0.66 3.02 -1 2 C-1.99 2 -2.98 2 -4 2 C-4 2.66 -4 3.32 -4 4 C-4.99 4.33 -5.98 4.66 -7 5 C-7.33 3.68 -7.66 2.36 -8 1 C-2.25 0 -2.25 0 0 0 Z " fill="#93ADC8" transform="translate(207,217)"/>
<path d="M0 0 C1.65 0.33 3.3 0.66 5 1 C5 1.99 5 2.98 5 4 C2.69 4 0.38 4 -2 4 C-1.34 2.68 -0.68 1.36 0 0 Z " fill="#D1DDFB" transform="translate(379,211)"/>
<path d="M0 0 C0.33 0 0.66 0 1 0 C1.02698189 1.62490954 1.04638757 3.24994633 1.0625 4.875 C1.07410156 5.77992188 1.08570313 6.68484375 1.09765625 7.6171875 C1 10 1 10 0 12 C-0.66 12 -1.32 12 -2 12 C-1.44687265 7.97007218 -0.8441938 3.97977076 0 0 Z " fill="#AEB6D6" transform="translate(173,204)"/>
<path d="M0 0 C-0.1875 1.875 -0.1875 1.875 -1 4 C-3.375 5.3125 -3.375 5.3125 -6 6 C-6.99 5.67 -7.98 5.34 -9 5 C-7.87926138 4.16094435 -6.75325453 3.32892169 -5.625 2.5 C-4.99851563 2.0359375 -4.37203125 1.571875 -3.7265625 1.09375 C-2 0 -2 0 0 0 Z " fill="#E1C9FE" transform="translate(247,174)"/>
<path d="M0 0 C0.33 0 0.66 0 1 0 C1 3.63 1 7.26 1 11 C1.66 11 2.32 11 3 11 C2.67 12.32 2.34 13.64 2 15 C1.34 14.67 0.68 14.34 0 14 C0 9.38 0 4.76 0 0 Z " fill="#A8B9F5" transform="translate(120,216)"/>
<path d="M0 0 C0.99 0.66 1.98 1.32 3 2 C2.34 2 1.68 2 1 2 C1 2.66 1 3.32 1 4 C-2 6 -2 6 -5 6 C-3.63016497 2.83884224 -3.0109362 2.0072908 0 0 Z " fill="#7E8EB5" transform="translate(168,218)"/>
<path d="M0 0 C-0.99 0.33 -1.98 0.66 -3 1 C-4.35308313 2.31328657 -5.68870078 3.64499081 -7 5 C-7.33 5 -7.66 5 -8 5 C-8 3.35 -8 1.7 -8 0 C-4.94736336 -0.98120464 -3.05263664 -0.98120464 0 0 Z " fill="#D2DEFD" transform="translate(290,211)"/>
<path d="M0 0 C0.66 0 1.32 0 2 0 C1.67 2.64 1.34 5.28 1 8 C0.01 8.33 -0.98 8.66 -2 9 C-2.33 8.01 -2.66 7.02 -3 6 C-2.34 5.67 -1.68 5.34 -1 5 C-0.34444881 2.47266765 -0.34444881 2.47266765 0 0 Z " fill="#C7D4F8" transform="translate(324,207)"/>
<path d="M0 0 C0.66 0 1.32 0 2 0 C1.67 0.99 1.34 1.98 1 3 C0.77439324 5.39254576 0.59151405 7.78928123 0.4375 10.1875 C0.35371094 11.45980469 0.26992188 12.73210937 0.18359375 14.04296875 C0.12300781 15.01878906 0.06242187 15.99460938 0 17 C-0.33 17 -0.66 17 -1 17 C-1.02684679 14.35409986 -1.04676357 11.70846904 -1.0625 9.0625 C-1.07087891 8.30775391 -1.07925781 7.55300781 -1.08789062 6.77539062 C-1.09652441 4.85005687 -1.05224333 2.92464419 -1 1 C-0.67 0.67 -0.34 0.34 0 0 Z " fill="#EEF1FF" transform="translate(463,201)"/>
<path d="M0 0 C0 0.66 0 1.32 0 2 C-4.62921525 3.0161692 -8.34462607 2.83796731 -13 2 C-13 1.67 -13 1.34 -13 1 C-8.61414671 0.29826347 -4.44209357 -0.10834375 0 0 Z " fill="#999BA9" transform="translate(431,204)"/>
<path d="M0 0 C3.63 0.33 7.26 0.66 11 1 C11 1.33 11 1.66 11 2 C8.03 2 5.06 2 2 2 C1.67 3.32 1.34 4.64 1 6 C0.67 6 0.34 6 0 6 C0 4.02 0 2.04 0 0 Z " fill="#848595" transform="translate(261,199)"/>
<path d="M0 0 C0.33 0.66 0.66 1.32 1 2 C2.32 1.34 3.64 0.68 5 0 C3.25 4.875 3.25 4.875 1 6 C1 5.34 1 4.68 1 4 C0.34 4 -0.32 4 -1 4 C-1 4.66 -1 5.32 -1 6 C-1.66 5.67 -2.32 5.34 -3 5 C-2.01 3.35 -1.02 1.7 0 0 Z " fill="#A299F0" transform="translate(203,159)"/>
<path d="M0 0 C0.66 0 1.32 0 2 0 C2.125 4.75 2.125 4.75 1 7 C-0.32 6.34 -1.64 5.68 -3 5 C-2.34 4.67 -1.68 4.34 -1 4 C-0.34786708 1.97536745 -0.34786708 1.97536745 0 0 Z " fill="#A0AED3" transform="translate(411,217)"/>
<path d="M0 0 C3.96 0.33 7.92 0.66 12 1 C12 1.33 12 1.66 12 2 C8.7 2.66 5.4 3.32 2 4 C1.34 2.68 0.68 1.36 0 0 Z " fill="#9997B9" transform="translate(354,192)"/>
<path d="M0 0 C0 0.33 0 0.66 0 1 C-1.98 1 -3.96 1 -6 1 C-6.33 1.66 -6.66 2.32 -7 3 C-7.33 2.67 -7.66 2.34 -8 2 C-10.32817964 1.63239269 -12.6618385 1.29758419 -15 1 C-15 0.67 -15 0.34 -15 0 C-9.65370398 -1.0024305 -5.37625234 -0.84888195 0 0 Z " fill="#87819D" transform="translate(343,193)"/>
<path d="M0 0 C0.66 0.66 1.32 1.32 2 2 C1.67 2.99 1.34 3.98 1 5 C-1.0625 5.6875 -1.0625 5.6875 -3 6 C-3.33 5.34 -3.66 4.68 -4 4 C-2.68 2.68 -1.36 1.36 0 0 Z " fill="#F9EEFD" transform="translate(233,182)"/>
<path d="M0 0 C2.475 0.495 2.475 0.495 5 1 C5 2.32 5 3.64 5 5 C3.35 5 1.7 5 0 5 C0 3.35 0 1.7 0 0 Z " fill="#D4D0FE" transform="translate(292,179)"/>
<path d="M0 0 C0.33 0 0.66 0 1 0 C1 2.97 1 5.94 1 9 C0.34 8.34 -0.32 7.68 -1 7 C-1.66 7.66 -2.32 8.32 -3 9 C-3 7.35 -3 5.7 -3 4 C-2.34 4 -1.68 4 -1 4 C-0.67 2.68 -0.34 1.36 0 0 Z " fill="#B0A7F6" transform="translate(283,140)"/>
<path d="M0 0 C1.32 0.33 2.64 0.66 4 1 C4 2.65 4 4.3 4 6 C2.68 5.67 1.36 5.34 0 5 C0 3.35 0 1.7 0 0 Z " fill="#3A34B3" transform="translate(249,118)"/>
<path d="M0 0 C0.99 0.99 1.98 1.98 3 3 C2.67 3.66 2.34 4.32 2 5 C-0.5625 5.625 -0.5625 5.625 -3 6 C-2.42655063 3.13275314 -2.1385485 2.1385485 0 0 Z " fill="#8D9BD4" transform="translate(128,223)"/>
<path d="M0 0 C0.99 0.33 1.98 0.66 3 1 C3 1.66 3 2.32 3 3 C-1.29 3 -5.58 3 -10 3 C-9.67 2.34 -9.34 1.68 -9 1 C-6.03 1.33 -3.06 1.66 0 2 C0 1.34 0 0.68 0 0 Z " fill="#9EA1C4" transform="translate(262,222)"/>
<path d="M0 0 C0.66 0 1.32 0 2 0 C2.33 1.32 2.66 2.64 3 4 C3.66 3.67 4.32 3.34 5 3 C4.67 4.65 4.34 6.3 4 8 C2.68 7.67 1.36 7.34 0 7 C0 4.69 0 2.38 0 0 Z " fill="#939CC5" transform="translate(431,213)"/>
<path d="M0 0 C1.32 0 2.64 0 4 0 C3.67 1.98 3.34 3.96 3 6 C1.68 5.01 0.36 4.02 -1 3 C-0.67 2.01 -0.34 1.02 0 0 Z " fill="#ABBEF1" transform="translate(214,217)"/>
<path d="M0 0 C0.33 0 0.66 0 1 0 C1.20086443 3.71599191 1.1519437 4.77208445 -1 8 C-3.625 8.6875 -3.625 8.6875 -6 9 C-5.67 8.01 -5.34 7.02 -5 6 C-4.34 5.690625 -3.68 5.38125 -3 5.0625 C-0.79394438 4.17972859 -0.79394438 4.17972859 -0.25 1.875 C-0.1675 1.25625 -0.085 0.6375 0 0 Z " fill="#C4D4F9" transform="translate(311,208)"/>
<path d="M0 0 C1.98 0 3.96 0 6 0 C6.33 1.65 6.66 3.3 7 5 C6.01 4.67 5.02 4.34 4 4 C4 3.34 4 2.68 4 2 C2.68 2 1.36 2 0 2 C0 1.34 0 0.68 0 0 Z " fill="#D7E3FC" transform="translate(463,208)"/>
<path d="M0 0 C1.65 1.32 3.3 2.64 5 4 C4.67 4.66 4.34 5.32 4 6 C2.35 5.67 0.7 5.34 -1 5 C-0.67 3.35 -0.34 1.7 0 0 Z " fill="#C5C5D6" transform="translate(168,197)"/>
<path d="M0 0 C0.78375 0.04125 1.5675 0.0825 2.375 0.125 C2.705 0.785 3.035 1.445 3.375 2.125 C1.395 2.785 -0.585 3.445 -2.625 4.125 C-3.285 3.465 -3.945 2.805 -4.625 2.125 C-2.625 0.125 -2.625 0.125 0 0 Z " fill="#ACBEF5" transform="translate(431.625,219.875)"/>
<path d="M0 0 C1.98 0.495 1.98 0.495 4 1 C3.67 2.32 3.34 3.64 3 5 C2.01 4.67 1.02 4.34 0 4 C-0.33 3.34 -0.66 2.68 -1 2 C-0.67 1.34 -0.34 0.68 0 0 Z " fill="#C8D9FA" transform="translate(221,212)"/>
<path d="M0 0 C0.66 0 1.32 0 2 0 C2 1.98 2 3.96 2 6 C0.68 6 -0.64 6 -2 6 C-1.125 1.125 -1.125 1.125 0 0 Z " fill="#CAA6FD" transform="translate(235,167)"/>
<path d="M0 0 C0 0.99 0 1.98 0 3 C-0.66 3 -1.32 3 -2 3 C-2 4.32 -2 5.64 -2 7 C-2.66 7 -3.32 7 -4 7 C-4 5.02 -4 3.04 -4 1 C-2 0 -2 0 0 0 Z " fill="#E8ABFD" transform="translate(250,161)"/>
<path d="M0 0 C0.99 0.33 1.98 0.66 3 1 C3 2.98 3 4.96 3 7 C2.01 6.67 1.02 6.34 0 6 C0 4.02 0 2.04 0 0 Z " fill="#6348F8" transform="translate(292,156)"/>
<path d="M0 0 C0.99 0.99 1.98 1.98 3 3 C2.34 3 1.68 3 1 3 C0.67 4.32 0.34 5.64 0 7 C-0.66 7 -1.32 7 -2 7 C-1.125 2.25 -1.125 2.25 0 0 Z " fill="#A2B2E1" transform="translate(416,216)"/>
<path d="M0 0 C0.99 0 1.98 0 3 0 C3.33 1.65 3.66 3.3 4 5 C3.01 5 2.02 5 1 5 C0.67 3.35 0.34 1.7 0 0 Z " fill="#99ABDA" transform="translate(241,214)"/>
<path d="M0 0 C0.66 0.66 1.32 1.32 2 2 C1.34 2 0.68 2 0 2 C-0.33 3.32 -0.66 4.64 -1 6 C-2.32 6.33 -3.64 6.66 -5 7 C-3.88820837 3.66462511 -2.52588702 2.36292656 0 0 Z " fill="#BDCFFB" transform="translate(287,211)"/>
<path d="M0 0 C2.5 1.3125 2.5 1.3125 5 3 C5 3.99 5 4.98 5 6 C2.5 4.6875 2.5 4.6875 0 3 C0 2.01 0 1.02 0 0 Z " fill="#A2A7C6" transform="translate(378,206)"/>
<path d="M0 0 C0.33 0 0.66 0 1 0 C1 1.98 1 3.96 1 6 C-2.2830098 7.6415049 -5.42545033 6.51888624 -9 6 C-9 5.67 -9 5.34 -9 5 C-6.36 4.67 -3.72 4.34 -1 4 C-0.67 2.68 -0.34 1.36 0 0 Z " fill="#87839B" transform="translate(205,194)"/>
<path d="M0 0 C1.485 0.99 1.485 0.99 3 2 C3 2.66 3 3.32 3 4 C3.66 4.33 4.32 4.66 5 5 C3.02 5.99 3.02 5.99 1 7 C0 6 0 6 -0.0625 2.9375 C-0.041875 1.968125 -0.02125 0.99875 0 0 Z " fill="#D2A0F8" transform="translate(243,164)"/>
<path d="M0 0 C0.99 0.495 0.99 0.495 2 1 C2 1.66 2 2.32 2 3 C1.34 3 0.68 3 0 3 C0 2.01 0 1.02 0 0 Z " fill="#352874" transform="translate(217,137)"/>
<path d="M0 0 C1.485 0.99 1.485 0.99 3 2 C2.01 2 1.02 2 0 2 C0 1.34 0 0.68 0 0 Z " fill="#5050AF" transform="translate(281,99)"/>
<path d="" fill="#40205F" transform="translate(0,0)"/>
<path d="" fill="#1D1D3E" transform="translate(0,0)"/>
</svg>
